<?xml version="1.0" encoding="utf-8"?>
<!-- Generator: Adobe Illustrator 27.8.1, SVG Export Plug-In . SVG Version: 6.00 Build 0)  -->
<svg version="1.1" xmlns="http://www.w3.org/2000/svg" xmlns:xlink="http://www.w3.org/1999/xlink" x="0px" y="0px"
	 viewBox="0 0 511 590.1" style="enable-background:new 0 0 511 590.1;" xml:space="preserve">
<style type="text/css">
	.st0{fill:#57A2AC;}
	.st1{fill:#B997C6;}
	.st2{fill:#824D99;}
	.st3{fill:#4E79C4;}
	.st4{fill:#7EB875;}
	.st5{fill:#E67F33;}
	.st6{fill:#CE2220;}
	.st7{fill:#D0B440;}
	.st8{fill:none;stroke:#757A7C;stroke-width:17.0079;stroke-miterlimit:11.3386;}
	.st9{opacity:0.3;}
	.st10{fill:none;stroke:#FFFFFF;stroke-width:7;stroke-miterlimit:11.3386;}
	.st11{fill:#F7FDFA;}
</style>
<g id="Background">
	<g>
		<polygon class="st0" points="195.9,545.9 255.5,580.3 255.6,580.2 255.6,9.9 255.5,9.8 195.9,44.2 		"/>
		<polygon class="st1" points="17.1,442.7 76.8,477.1 76.8,113.1 17.1,147.6 		"/>
		<polygon class="st2" points="76.7,477.1 136.4,511.6 136.4,78.6 76.7,113.1 		"/>
		<polygon class="st3" points="136.3,511.5 196,546 196,44.2 136.3,78.7 		"/>
		<polygon class="st4" points="255.5,580.3 315.3,545.8 315.3,44.3 255.5,9.8 		"/>
		<polygon class="st5" points="374.8,511.4 434.5,476.9 434.5,113.2 374.8,78.7 		"/>
		<polygon class="st6" points="434.4,477 494.1,442.5 494.1,147.6 434.4,113.1 		"/>
		<polygon class="st7" points="315.2,545.9 374.9,511.4 374.9,78.7 315.2,44.3 		"/>
	</g>
</g>
<g id="Border">
	<path class="st8" d="M255.5,580.3L8.5,437.7V152.5l247-142.7l247,142.6v285.2L255.5,580.3z"/>
</g>
<g id="Text_00000041283610292869131430000002032744997821668490_">
	<g class="st9">
		<path class="st10" d="M49.6,238c-5.2,0-9.2,4-9.2,9.2c0,5.2,3.8,9.1,8.9,9.1c2.8,0,5.3-1,7-2.7c1.6-1.7,2.4-3.9,2.4-6.3
			C58.7,241.9,54.9,238,49.6,238z"/>
		<rect x="42" y="264.7" class="st10" width="15.3" height="70.8"/>
		<path class="st10" d="M110,263.2c-10.1,0-17.3,4.7-21.4,10l-0.5-8.5H74.1l0.1,1.6c0.4,5.2,0.6,10.6,0.6,18.2v50.9h15.3v-42.2
			c0-2,0.3-3.9,0.8-5.3c1.8-5.7,7.1-11.5,15.1-11.5c11.7,0,14.2,10.1,14.2,18.5v40.6h15.3v-42C135.4,264.7,114.2,263.2,110,263.2z"
			/>
		<rect x="152.4" y="233.1" class="st10" width="15.3" height="102.4"/>
		<path class="st10" d="M218.5,276.1c6.8,0,11.1,1.6,13.5,3l1.6,0.9l3.7-12.5l-1.1-0.6c-3.4-1.7-10-3.7-17.8-3.7
			c-22.3,0-37.9,15.4-37.9,37.5c0,21.6,14.2,36.1,35.2,36.1c9.1,0,16.5-2.2,20.2-4.1l1-0.5l-2.8-12.1l-1.7,0.7
			c-3.6,1.6-7.9,3.2-14.5,3.2c-13.2,0-22-9.6-22-23.8C196,285.6,204.8,276.1,218.5,276.1z"/>
		<path class="st10" d="M277.6,263.2c-20.7,0-35.1,15.4-35.1,37.5c0,21.4,14,36.4,34,36.4c17.5,0,35.2-11.6,35.2-37.5
			C311.7,277.8,298,263.2,277.6,263.2z M296.1,300c0,14.4-8,24.8-19.1,24.8s-19.1-10.3-19.1-24.5c0-12.4,6-24.8,19.4-24.8
			C292.1,275.4,296.1,291.5,296.1,300z"/>
		<rect x="324.2" y="233.1" class="st10" width="15.3" height="102.4"/>
		<path class="st10" d="M387.5,263.2c-20.7,0-35.1,15.4-35.1,37.5c0,21.4,14,36.4,34,36.4c17.5,0,35.2-11.6,35.2-37.5
			C421.6,277.8,407.9,263.2,387.5,263.2z M386.9,324.8c-11.1,0-19.1-10.3-19.1-24.5c0-12.4,6-24.8,19.4-24.8
			c14.9,0,18.8,16.1,18.8,24.5C406,314.4,397.9,324.8,386.9,324.8z"/>
		<path class="st10" d="M469.4,263.7c-1.3-0.3-2.4-0.5-3.9-0.5c-7.4,0-14,4.2-18,11l-0.3-9.5h-13.8l0.1,1.6c0.4,5.8,0.6,12.3,0.6,21
			v48.1h15.2v-37.6c0-2,0.3-3.9,0.5-5.5c1.6-9,7.4-14.6,15-14.6c1.5,0,2.7,0.1,3.9,0.4l1.8,0.4v-14.7L469.4,263.7z"/>
	</g>
	<g>
		<path class="st11" d="M49.6,238c-5.2,0-9.2,4-9.2,9.2c0,5.2,3.8,9.1,8.9,9.1c2.8,0,5.3-1,7-2.7c1.6-1.7,2.4-3.9,2.4-6.3
			C58.7,241.9,54.9,238,49.6,238z"/>
		<rect x="42" y="264.7" class="st11" width="15.3" height="70.8"/>
		<path class="st11" d="M110,263.2c-10.1,0-17.3,4.7-21.4,10l-0.5-8.5H74.1l0.1,1.6c0.4,5.2,0.6,10.6,0.6,18.2v50.9h15.3v-42.2
			c0-2,0.3-3.9,0.8-5.3c1.8-5.7,7.1-11.5,15.1-11.5c11.7,0,14.2,10.1,14.2,18.5v40.6h15.3v-42C135.4,264.7,114.2,263.2,110,263.2z"
			/>
		<rect x="152.4" y="233.1" class="st11" width="15.3" height="102.4"/>
		<path class="st11" d="M218.5,276.1c6.8,0,11.1,1.6,13.5,3l1.6,0.9l3.7-12.5l-1.1-0.6c-3.4-1.7-10-3.7-17.8-3.7
			c-22.3,0-37.9,15.4-37.9,37.5c0,21.6,14.2,36.1,35.2,36.1c9.1,0,16.5-2.2,20.2-4.1l1-0.5l-2.8-12.1l-1.7,0.7
			c-3.6,1.6-7.9,3.2-14.5,3.2c-13.2,0-22-9.6-22-23.8C196,285.6,204.8,276.1,218.5,276.1z"/>
		<path class="st11" d="M277.6,263.2c-20.7,0-35.1,15.4-35.1,37.5c0,21.4,14,36.4,34,36.4c17.5,0,35.2-11.6,35.2-37.5
			C311.7,277.8,298,263.2,277.6,263.2z M296.1,300c0,14.4-8,24.8-19.1,24.8s-19.1-10.3-19.1-24.5c0-12.4,6-24.8,19.4-24.8
			C292.1,275.4,296.1,291.5,296.1,300z"/>
		<rect x="324.2" y="233.1" class="st11" width="15.3" height="102.4"/>
		<path class="st11" d="M387.5,263.2c-20.7,0-35.1,15.4-35.1,37.5c0,21.4,14,36.4,34,36.4c17.5,0,35.2-11.6,35.2-37.5
			C421.6,277.8,407.9,263.2,387.5,263.2z M386.9,324.8c-11.1,0-19.1-10.3-19.1-24.5c0-12.4,6-24.8,19.4-24.8
			c14.9,0,18.8,16.1,18.8,24.5C406,314.4,397.9,324.8,386.9,324.8z"/>
		<path class="st11" d="M469.4,263.7c-1.3-0.3-2.4-0.5-3.9-0.5c-7.4,0-14,4.2-18,11l-0.3-9.5h-13.8l0.1,1.6c0.4,5.8,0.6,12.3,0.6,21
			v48.1h15.2v-37.6c0-2,0.3-3.9,0.5-5.5c1.6-9,7.4-14.6,15-14.6c1.5,0,2.7,0.1,3.9,0.4l1.8,0.4v-14.7L469.4,263.7z"/>
	</g>
</g>
</svg>
