<svg height="65.333336" viewBox="0 0 514.66669 65.333336" width="514.66669" xmlns="http://www.w3.org/2000/svg" xmlns:xlink="http://www.w3.org/1999/xlink"><clipPath id="a"><path d="m0 0h996.264v48.376h-996.264z" transform="matrix(1 0 0 -1 0 40.008001)"/></clipPath><clipPath id="b"><path d="m0 0h996.264v48.376h-996.264z" transform="translate(0 -34.030001)"/></clipPath><clipPath id="c"><path d="m0 0h996.264v48.376h-996.264z" transform="matrix(1 0 0 -1 -21.427001 23.173)"/></clipPath><clipPath id="d"><path d="m0 0h996.264v48.376h-996.264z" transform="translate(0 -17.871)"/></clipPath><clipPath id="e"><path d="m0 0h996.264v48.376h-996.264z" transform="matrix(1 0 0 -1 -5.978 5.8)"/></clipPath><clipPath id="f"><path d="m0 0h100v10h-100z" transform="matrix(10 0 0 10 0 -.000002)"/></clipPath><clipPath id="g"><path d="m0 0h100v10h-100z" transform="matrix(10 0 0 10 0 -.000002)"/></clipPath><clipPath id="h"><path d="m0 0h100v10h-100z" transform="matrix(10 0 0 10 0 -.000002)"/></clipPath><clipPath id="i"><path d="m0 0h100v10h-100z" transform="matrix(10 0 0 10 0 -.000002)"/></clipPath><clipPath id="j"><path d="m0 0h100v10h-100z" transform="matrix(10 0 0 10 0 -.000002)"/></clipPath><clipPath id="k"><path d="m0 0h100v10h-100z" transform="matrix(10 0 0 10 0 -.000002)"/></clipPath><clipPath id="l"><path d="m0 0h100v10h-100z" transform="matrix(10 0 0 10 0 -.000002)"/></clipPath><clipPath id="m"><path d="m0 0h100v10h-100z" transform="matrix(10 0 0 10 0 -.000002)"/></clipPath><clipPath id="n"><path d="m0 0h100v10h-100z" transform="matrix(10 0 0 10 0 -.000002)"/></clipPath><clipPath id="o"><path d="m0 0h100v10h-100z" transform="matrix(10 0 0 10 0 -.000002)"/></clipPath><clipPath id="p"><path d="m0 0h100v10h-100z" transform="matrix(10 0 0 10 0 -.000002)"/></clipPath><clipPath id="q"><path d="m0 0h100v10h-100z" transform="matrix(10 0 0 10 0 -.000002)"/></clipPath><clipPath id="r"><path d="m0 0h100v10h-100z" transform="matrix(10 0 0 10 0 -.000002)"/></clipPath><clipPath id="s"><path d="m0 0h100v10h-100z" transform="matrix(10 0 0 10 0 -.000002)"/></clipPath><clipPath id="t"><path d="m0 0h100v10h-100z" transform="matrix(10 0 0 10 0 -.000002)"/></clipPath><clipPath id="u"><path d="m0 0h100v10h-100z" transform="matrix(10 0 0 10 0 -.000002)"/></clipPath><clipPath id="v"><path d="m0 0h100v10h-100z" transform="matrix(10 0 0 10 0 -.000002)"/></clipPath><clipPath id="w"><path d="m0 0h100v10h-100z" transform="matrix(10 0 0 10 0 -.000002)"/></clipPath><clipPath id="x"><path d="m0 0h100v10h-100z" transform="matrix(10 0 0 10 0 -.000002)"/></clipPath><clipPath id="y"><path d="m0 0h100v10h-100z" transform="matrix(10 0 0 10 0 -.000002)"/></clipPath><clipPath id="z"><path d="m0 0h100v10h-100z" transform="matrix(10 0 0 10 0 -.000002)"/></clipPath><clipPath id="A"><path d="m0 0h100v10h-100z" transform="matrix(10 0 0 10 0 -.000002)"/></clipPath><clipPath id="B"><path d="m0 0h100v10h-100z" transform="matrix(10 0 0 10 0 -.000002)"/></clipPath><clipPath id="C"><path d="m0 0h100v10h-100z" transform="matrix(10 0 0 10 0 -.000002)"/></clipPath><clipPath id="D"><path d="m0 0h100v10h-100z" transform="matrix(10 0 0 10 0 -.000002)"/></clipPath><clipPath id="E"><path d="m0 0h100v10h-100z" transform="matrix(10 0 0 10 0 -.000002)"/></clipPath><clipPath id="F"><path d="m0 0h100v10h-100z" transform="matrix(10 0 0 10 0 -.000002)"/></clipPath><clipPath id="G"><path d="m0 0h100v10h-100z" transform="matrix(10 0 0 10 0 -.000002)"/></clipPath><clipPath id="H"><path d="m0 0h100v10h-100z" transform="matrix(10 0 0 10 0 -.000002)"/></clipPath><clipPath id="I"><path d="m0 0h100v10h-100z" transform="matrix(10 0 0 10 0 -.000002)"/></clipPath><clipPath id="J"><path d="m0 0h100v10h-100z" transform="matrix(10 0 0 10 0 -.000002)"/></clipPath><clipPath id="K"><path d="m0 0h100v10h-100z" transform="matrix(10 0 0 10 0 -.000002)"/></clipPath><clipPath id="L"><path d="m0 0h100v10h-100z" transform="matrix(10 0 0 10 0 -.000002)"/></clipPath><clipPath id="M"><path d="m0 0h100v10h-100z" transform="matrix(10 0 0 10 0 -.000002)"/></clipPath><clipPath id="N"><path d="m0 0h100v10h-100z" transform="matrix(10 0 0 10 0 -.000002)"/></clipPath><clipPath id="O"><path d="m0 0h100v10h-100z" transform="matrix(10 0 0 10 0 -.000002)"/></clipPath><clipPath id="P"><path d="m0 0h100v10h-100z" transform="matrix(10 0 0 10 0 -.000002)"/></clipPath><clipPath id="Q"><path d="m0 0h100v10h-100z" transform="matrix(10 0 0 10 0 -.000002)"/></clipPath><clipPath id="R"><path d="m0 0h100v10h-100z" transform="matrix(10 0 0 10 0 -.000002)"/></clipPath><clipPath id="S"><path d="m0 0h100v10h-100z" transform="matrix(10 0 0 10 0 -.000002)"/></clipPath><clipPath id="T"><path d="m0 0h100v10h-100z" transform="matrix(10 0 0 10 0 -.000002)"/></clipPath><clipPath id="U"><path d="m0 0h100v10h-100z" transform="matrix(10 0 0 10 0 -.000002)"/></clipPath><clipPath id="V"><path d="m0 0h100v10h-100z" transform="matrix(10 0 0 10 0 -.000002)"/></clipPath><clipPath id="W"><path d="m0 0h100v10h-100z" transform="matrix(10 0 0 10 0 -.000002)"/></clipPath><clipPath id="X"><path d="m0 0h100v10h-100z" transform="matrix(10 0 0 10 0 -.000002)"/></clipPath><clipPath id="Y"><path d="m0 0h100v10h-100z" transform="matrix(10 0 0 10 0 -.000002)"/></clipPath><clipPath id="Z"><path d="m0 0h100v10h-100z" transform="matrix(10 0 0 10 0 -.000002)"/></clipPath><clipPath id="aa"><path d="m0 0h100v10h-100z" transform="matrix(10 0 0 10 0 -.000002)"/></clipPath><clipPath id="ab"><path d="m0 0h100v10h-100z" transform="matrix(10 0 0 10 0 -.000002)"/></clipPath><clipPath id="ac"><path d="m0 0h100v10h-100z" transform="matrix(10 0 0 10 0 -.000002)"/></clipPath><clipPath id="ad"><path d="m0 0h100v10h-100z" transform="matrix(10 0 0 10 0 -.000002)"/></clipPath><clipPath id="ae"><path d="m0 0h100v10h-100z" transform="matrix(10 0 0 10 0 -.000002)"/></clipPath><clipPath id="af"><path d="m0 0h100v10h-100z" transform="matrix(10 0 0 10 0 -.000002)"/></clipPath><clipPath id="ag"><path d="m0 0h100v10h-100z" transform="matrix(10 0 0 10 0 -.000002)"/></clipPath><clipPath id="ah"><path d="m0 0h100v10h-100z" transform="matrix(10 0 0 10 0 -.000002)"/></clipPath><clipPath id="ai"><path d="m0 0h100v10h-100z" transform="matrix(10 0 0 10 0 -.000002)"/></clipPath><clipPath id="aj"><path d="m0 0h100v10h-100z" transform="matrix(10 0 0 10 0 -.000002)"/></clipPath><clipPath id="ak"><path d="m0 0h100v10h-100z" transform="matrix(10 0 0 10 0 -.000002)"/></clipPath><clipPath id="al"><path d="m0 0h100v10h-100z" transform="matrix(10 0 0 10 0 -.000002)"/></clipPath><clipPath id="am"><path d="m0 0h100v10h-100z" transform="matrix(10 0 0 10 0 -.000002)"/></clipPath><clipPath id="an"><path d="m0 0h100v10h-100z" transform="matrix(10 0 0 10 0 -.000002)"/></clipPath><clipPath id="ao"><path d="m0 0h100v10h-100z" transform="matrix(10 0 0 10 0 -.000002)"/></clipPath><clipPath id="ap"><path d="m0 0h100v10h-100z" transform="matrix(10 0 0 10 0 -.000002)"/></clipPath><clipPath id="aq"><path d="m0 0h100v10h-100z" transform="matrix(10 0 0 10 0 -.000002)"/></clipPath><clipPath id="ar"><path d="m0 0h100v10h-100z" transform="matrix(10 0 0 10 0 -.000002)"/></clipPath><clipPath id="as"><path d="m0 0h100v10h-100z" transform="matrix(10 0 0 10 0 -.000002)"/></clipPath><clipPath id="at"><path d="m0 0h100v10h-100z" transform="matrix(10 0 0 10 0 -.000002)"/></clipPath><clipPath id="au"><path d="m0 0h100v10h-100z" transform="matrix(10 0 0 10 0 -.000002)"/></clipPath><clipPath id="av"><path d="m0 0h100v10h-100z" transform="matrix(10 0 0 10 0 -.000002)"/></clipPath><clipPath id="aw"><path d="m0 0h100v10h-100z" transform="matrix(10 0 0 10 0 -.000002)"/></clipPath><clipPath id="ax"><path d="m0 0h100v10h-100z" transform="matrix(10 0 0 10 0 -.000002)"/></clipPath><clipPath id="ay"><path d="m0 0h100v10h-100z" transform="matrix(10 0 0 10 0 -.000002)"/></clipPath><clipPath id="az"><path d="m0 0h100v10h-100z" transform="matrix(10 0 0 10 0 -.000002)"/></clipPath><clipPath id="aA"><path d="m0 0h100v10h-100z" transform="matrix(10 0 0 10 0 -.000002)"/></clipPath><clipPath id="aB"><path d="m0 0h100v10h-100z" transform="matrix(10 0 0 10 0 -.000002)"/></clipPath><clipPath id="aC"><path d="m0 0h100v10h-100z" transform="matrix(10 0 0 10 0 -.000002)"/></clipPath><clipPath id="aD"><path d="m0 0h100v10h-100z" transform="matrix(10 0 0 10 0 -.000002)"/></clipPath><clipPath id="aE"><path d="m0 0h100v10h-100z" transform="matrix(10 0 0 10 0 -.000002)"/></clipPath><clipPath id="aF"><path d="m0 0h100v10h-100z" transform="matrix(10 0 0 10 0 -.000002)"/></clipPath><clipPath id="aG"><path d="m0 0h100v10h-100z" transform="matrix(10 0 0 10 0 -.000002)"/></clipPath><clipPath id="aH"><path d="m0 0h100v10h-100z" transform="matrix(10 0 0 10 0 -.000002)"/></clipPath><clipPath id="aI"><path d="m0 0h100v10h-100z" transform="matrix(10 0 0 10 0 -.000002)"/></clipPath><clipPath id="aJ"><path d="m0 0h100v10h-100z" transform="matrix(10 0 0 10 0 -.000002)"/></clipPath><clipPath id="aK"><path d="m0 0h100v10h-100z" transform="matrix(10 0 0 10 0 -.000002)"/></clipPath><clipPath id="aL"><path d="m0 0h100v10h-100z" transform="matrix(10 0 0 10 0 -.000002)"/></clipPath><clipPath id="aM"><path d="m0 0h100v10h-100z" transform="matrix(10 0 0 10 0 -.000002)"/></clipPath><clipPath id="aN"><path d="m0 0h100v10h-100z" transform="matrix(10 0 0 10 0 -.000002)"/></clipPath><clipPath id="aO"><path d="m0 0h100v10h-100z" transform="matrix(10 0 0 10 0 -.000002)"/></clipPath><clipPath id="aP"><path d="m0 0h100v10h-100z" transform="matrix(10 0 0 10 0 -.000002)"/></clipPath><clipPath id="aQ"><path d="m0 0h100v10h-100z" transform="matrix(10 0 0 10 0 -.000002)"/></clipPath><clipPath id="aR"><path d="m0 0h100v10h-100z" transform="matrix(10 0 0 10 0 -.000002)"/></clipPath><clipPath id="aS"><path d="m0 0h100v10h-100z" transform="matrix(10 0 0 10 0 -.000002)"/></clipPath><clipPath id="aT"><path d="m0 0h100v10h-100z" transform="matrix(10 0 0 10 0 -.000002)"/></clipPath><clipPath id="aU"><path d="m0 0h100v10h-100z" transform="matrix(10 0 0 10 0 -.000002)"/></clipPath><clipPath id="aV"><path d="m0 0h100v10h-100z" transform="matrix(10 0 0 10 0 -.000002)"/></clipPath><clipPath id="aW"><path d="m0 0h100v10h-100z" transform="matrix(10 0 0 10 0 -.000002)"/></clipPath><clipPath id="aX"><path d="m0 0h100v10h-100z" transform="matrix(10 0 0 10 0 -.000002)"/></clipPath><clipPath id="aY"><path d="m0 0h100v10h-100z" transform="matrix(10 0 0 10 0 -.000002)"/></clipPath><clipPath id="aZ"><path d="m0 0h100v10h-100z" transform="matrix(10 0 0 10 0 -.000002)"/></clipPath><clipPath id="a0"><path d="m0 0h100v10h-100z" transform="matrix(10 0 0 10 0 -.000002)"/></clipPath><clipPath id="a1"><path d="m0 0h996.264v48.376h-996.264z" transform="matrix(1.3333333 0 0 -1.3333333 2.661333 64)"/></clipPath><clipPath id="a2"><path d="m0 0h996.264v48.376h-996.264z" transform="matrix(1 0 0 -1 -277.58601 5.8)"/></clipPath><clipPath id="a3"><path d="m0 0h996.264v48.376h-996.264z" transform="translate(0 -.398)"/></clipPath><clipPath id="a4"><path d="m0 0h384v47h-384z" transform="matrix(1.3333333 0 0 -1.3333333 1.328 64)"/></clipPath><g clip-path="url(#a4)"><text clip-path="url(#a)" transform="matrix(1.3333333 0 0 1.3333333 2.661333 10.656)"><tspan font-family="Nimbus Roman No9 L" font-size="9.9626" font-weight="700" x="0 5.728495 10.709795 16.249001 19.018604 25.932648 30.913948" y="0">Table4.</tspan><tspan font-family="Nimbus Roman No9 L" font-size="9.9626" x="36.493 42.032207 46.455601 51.436901 55.860294 63.611198 70.525238 75.506538 82.978493 87.959793 92.941093 97.922394 102.90369 107.63593 114.82893 122.30087 126.72427 131.70557 134.47517 139.45647 144.43777 147.75531 153.01556 157.99687 160.76648 164.64192 169.06532 173.89719 178.72903 183.15244 186.46999 190.89337 198.36533 203.34662 210.81857 215.79988 220.78117 225.76248 230.74377 233.51338 238.49467 241.26428 244.58183 247.35143 252.33273 255.65027 263.12222 268.10352 275.57547 281.66263 286.64392 291.06732 295.49072 301.29892 306.8381 311.26151 316.2428 320.6662 324.54166 332.29254 336.71594" y="0">Schemebyunknownauthor;discoveredongnuplot-infobyEdzerPebesma.</tspan></text><path clip-path="url(#b)" d="m0 0h382.271" fill="none" stroke="#000" stroke-miterlimit="10" stroke-width=".797" transform="matrix(1.3333333 0 0 -1.3333333 2.661333 18.626667)"/><text clip-path="url(#c)" transform="matrix(1.3333333 0 0 1.3333333 31.230667 33.102667)"><tspan font-family="Latin Modern Sans" font-size="8.9664" font-weight="700" x="0 5.750152 10.233353 15.542357 67.046257 72.52562 76.909294 81.940346 86.523071 94.29425 165.63182 171.66441 176.37178 178.66269 183.24542 186.86964 190.49385 246.83064 255.59799 260.30536 268.07922 292.87222 319.75708 346.10303" y="0">TypeSchemePaletteMaxnNBF</tspan></text><path clip-path="url(#d)" d="m0 0h382.271" fill="none" stroke="#000" stroke-miterlimit="10" stroke-width=".498" transform="matrix(1.3333333 0 0 -1.3333333 2.661333 40.172)"/><text clip-path="url(#e)" transform="matrix(1.3333333 0 0 1.3333333 10.632 56.266667)"><tspan font-family="Nimbus Roman No9 L" font-size="8.9664" x="0 4.985318 8.9664 13.4496 17.9328 21.913881 26.397081 28.88974 31.382401 35.363483 62.979992 67.463196 71.856728" y="0">Sequentialbpy</tspan></text><g clip-path="url(#a1)"><path clip-path="url(#f)" d="m0 0h15.1992v100h-15.1992z" transform="matrix(.133344 0 0 -.13333733 205.032 57.553333)"/><path clip-path="url(#g)" d="m10.1016 0h15.1992v100h-15.1992z" fill="#00000e" transform="matrix(.133344 0 0 -.13333733 205.032 57.553333)"/><path clip-path="url(#h)" d="m20.1992 0h15.1992v100h-15.1992z" fill="#000018" transform="matrix(.133344 0 0 -.13333733 205.032 57.553333)"/><path clip-path="url(#i)" d="m30.3008 0h15.1992v100h-15.1992z" fill="#000020" transform="matrix(.133344 0 0 -.13333733 205.032 57.553333)"/><path clip-path="url(#j)" d="m40.3984 0h15.2031v100h-15.2031z" fill="#03002a" transform="matrix(.133344 0 0 -.13333733 205.032 57.553333)"/><path clip-path="url(#k)" d="m50.5 0h15.1992v100h-15.1992z" fill="#030034" transform="matrix(.133344 0 0 -.13333733 205.032 57.553333)"/><path clip-path="url(#l)" d="m60.6016 0h15.1992v100h-15.1992z" fill="#00003f" transform="matrix(.133344 0 0 -.13333733 205.032 57.553333)"/><path clip-path="url(#m)" d="m70.6992 0h15.1992v100h-15.1992z" fill="#000049" transform="matrix(.133344 0 0 -.13333733 205.032 57.553333)"/><path clip-path="url(#n)" d="m80.8008 0h15.1992v100h-15.1992z" fill="#000054" transform="matrix(.133344 0 0 -.13333733 205.032 57.553333)"/><path clip-path="url(#o)" d="m90.8984 0h15.2031v100h-15.2031z" fill="#00005f" transform="matrix(.133344 0 0 -.13333733 205.032 57.553333)"/><path clip-path="url(#p)" d="m101 0h15.1992v100h-15.1992z" fill="#000069" transform="matrix(.133344 0 0 -.13333733 205.032 57.553333)"/><path clip-path="url(#q)" d="m111.102 0h15.1992v100h-15.1992z" fill="#000073" transform="matrix(.133344 0 0 -.13333733 205.032 57.553333)"/><path clip-path="url(#r)" d="m121.199 0h15.1992v100h-15.1992z" fill="#00007e" transform="matrix(.133344 0 0 -.13333733 205.032 57.553333)"/><path clip-path="url(#s)" d="m131.301 0h15.1992v100h-15.1992z" fill="#008" transform="matrix(.133344 0 0 -.13333733 205.032 57.553333)"/><path clip-path="url(#t)" d="m141.398 0h15.2031v100h-15.2031z" fill="#000093" transform="matrix(.133344 0 0 -.13333733 205.032 57.553333)"/><path clip-path="url(#u)" d="m151.5 0h15.1992v100h-15.1992z" fill="#00009d" transform="matrix(.133344 0 0 -.13333733 205.032 57.553333)"/><path clip-path="url(#v)" d="m161.602 0h15.1992v100h-15.1992z" fill="#0000a8" transform="matrix(.133344 0 0 -.13333733 205.032 57.553333)"/><path clip-path="url(#w)" d="m171.699 0h15.1992v100h-15.1992z" fill="#0000b3" transform="matrix(.133344 0 0 -.13333733 205.032 57.553333)"/><path clip-path="url(#x)" d="m181.801 0h15.1992v100h-15.1992z" fill="#0000bd" transform="matrix(.133344 0 0 -.13333733 205.032 57.553333)"/><path clip-path="url(#y)" d="m191.898 0h15.2031v100h-15.2031z" fill="#0000c8" transform="matrix(.133344 0 0 -.13333733 205.032 57.553333)"/><path clip-path="url(#z)" d="m202 0h15.1992v100h-15.1992z" fill="#0000d2" transform="matrix(.133344 0 0 -.13333733 205.032 57.553333)"/><path clip-path="url(#A)" d="m212.102 0h15.1992v100h-15.1992z" fill="#00d" transform="matrix(.133344 0 0 -.13333733 205.032 57.553333)"/><path clip-path="url(#B)" d="m222.199 0h15.1992v100h-15.1992z" fill="#0000e7" transform="matrix(.133344 0 0 -.13333733 205.032 57.553333)"/><path clip-path="url(#C)" d="m232.301 0h15.1992v100h-15.1992z" fill="#0000f1" transform="matrix(.133344 0 0 -.13333733 205.032 57.553333)"/><path clip-path="url(#D)" d="m242.398 0h15.2031v100h-15.2031z" fill="#0000fc" transform="matrix(.133344 0 0 -.13333733 205.032 57.553333)"/><path clip-path="url(#E)" d="m252.5 0h15.1992v100h-15.1992z" fill="#00f" transform="matrix(.133344 0 0 -.13333733 205.032 57.553333)"/><path clip-path="url(#F)" d="m262.602 0h15.1992v100h-15.1992z" fill="#00f" transform="matrix(.133344 0 0 -.13333733 205.032 57.553333)"/><path clip-path="url(#G)" d="m272.699 0h15.1992v100h-15.1992z" fill="#0300ff" transform="matrix(.133344 0 0 -.13333733 205.032 57.553333)"/><path clip-path="url(#H)" d="m282.801 0h15.1992v100h-15.1992z" fill="#0f00ff" transform="matrix(.133344 0 0 -.13333733 205.032 57.553333)"/><path clip-path="url(#I)" d="m292.898 0h15.2031v100h-15.2031z" fill="#1d00ff" transform="matrix(.133344 0 0 -.13333733 205.032 57.553333)"/><path clip-path="url(#J)" d="m303 0h15.1992v100h-15.1992z" fill="#2800ff" transform="matrix(.133344 0 0 -.13333733 205.032 57.553333)"/><path clip-path="url(#K)" d="m313.102 0h15.1992v100h-15.1992z" fill="#3100ff" transform="matrix(.133344 0 0 -.13333733 205.032 57.553333)"/><path clip-path="url(#L)" d="m323.199 0h15.1992v100h-15.1992z" fill="#3800ff" transform="matrix(.133344 0 0 -.13333733 205.032 57.553333)"/><path clip-path="url(#M)" d="m333.301 0h15.1992v100h-15.1992z" fill="#4100ff" transform="matrix(.133344 0 0 -.13333733 205.032 57.553333)"/><path clip-path="url(#N)" d="m343.398 0h15.2031v100h-15.2031z" fill="#4b00ff" transform="matrix(.133344 0 0 -.13333733 205.032 57.553333)"/><path clip-path="url(#O)" d="m353.5 0h15.1992v100h-15.1992z" fill="#5300ff" transform="matrix(.133344 0 0 -.13333733 205.032 57.553333)"/><path clip-path="url(#P)" d="m363.602 0h15.1992v100h-15.1992z" fill="#5b00ff" transform="matrix(.133344 0 0 -.13333733 205.032 57.553333)"/><path clip-path="url(#Q)" d="m373.699 0h15.1992v100h-15.1992z" fill="#6400ff" transform="matrix(.133344 0 0 -.13333733 205.032 57.553333)"/><path clip-path="url(#R)" d="m383.801 0h15.1992v100h-15.1992z" fill="#6c00ff" transform="matrix(.133344 0 0 -.13333733 205.032 57.553333)"/><path clip-path="url(#S)" d="m393.898 0h15.2031v100h-15.2031z" fill="#7500ff" transform="matrix(.133344 0 0 -.13333733 205.032 57.553333)"/><path clip-path="url(#T)" d="m404 0h15.1992v100h-15.1992z" fill="#7c00ff" transform="matrix(.133344 0 0 -.13333733 205.032 57.553333)"/><path clip-path="url(#U)" d="m414.102 0h15.1992v100h-15.1992z" fill="#8500ff" transform="matrix(.133344 0 0 -.13333733 205.032 57.553333)"/><path clip-path="url(#V)" d="m424.199 0h15.1992v100h-15.1992z" fill="#8d00fd" transform="matrix(.133344 0 0 -.13333733 205.032 57.553333)"/><path clip-path="url(#W)" d="m434.301 0h15.1992v100h-15.1992z" fill="#9500f7" transform="matrix(.133344 0 0 -.13333733 205.032 57.553333)"/><path clip-path="url(#X)" d="m444.398 0h15.2031v100h-15.2031z" fill="#9e03f2" transform="matrix(.133344 0 0 -.13333733 205.032 57.553333)"/><path clip-path="url(#Y)" d="m454.5 0h15.1992v100h-15.1992z" fill="#a60bed" transform="matrix(.133344 0 0 -.13333733 205.032 57.553333)"/><path clip-path="url(#Z)" d="m464.602 0h15.1992v100h-15.1992z" fill="#ae12e8" transform="matrix(.133344 0 0 -.13333733 205.032 57.553333)"/><path clip-path="url(#aa)" d="m474.699 0h15.1992v100h-15.1992z" fill="#b717e3" transform="matrix(.133344 0 0 -.13333733 205.032 57.553333)"/><path clip-path="url(#ab)" d="m484.801 0h15.1992v100h-15.1992z" fill="#bf20dd" transform="matrix(.133344 0 0 -.13333733 205.032 57.553333)"/><path clip-path="url(#ac)" d="m494.898 0h15.2031v100h-15.2031z" fill="#c725d8" transform="matrix(.133344 0 0 -.13333733 205.032 57.553333)"/><path clip-path="url(#ad)" d="m505.102 0h15.1992v100h-15.1992z" fill="#cf2bd2" transform="matrix(.133344 0 0 -.13333733 205.032 57.553333)"/><path clip-path="url(#ae)" d="m515.199 0h15.1992v100h-15.1992z" fill="#d731cd" transform="matrix(.133344 0 0 -.13333733 205.032 57.553333)"/><path clip-path="url(#af)" d="m525.301 0h15.1992v100h-15.1992z" fill="#e036c8" transform="matrix(.133344 0 0 -.13333733 205.032 57.553333)"/><path clip-path="url(#ag)" d="m535.398 0h15.2031v100h-15.2031z" fill="#e83cc2" transform="matrix(.133344 0 0 -.13333733 205.032 57.553333)"/><path clip-path="url(#ah)" d="m545.5 0h15.1992v100h-15.1992z" fill="#f041bd" transform="matrix(.133344 0 0 -.13333733 205.032 57.553333)"/><path clip-path="url(#ai)" d="m555.602 0h15.1992v100h-15.1992z" fill="#f847b8" transform="matrix(.133344 0 0 -.13333733 205.032 57.553333)"/><path clip-path="url(#aj)" d="m565.699 0h15.1992v100h-15.1992z" fill="#ff4cb3" transform="matrix(.133344 0 0 -.13333733 205.032 57.553333)"/><path clip-path="url(#ak)" d="m575.801 0h15.1992v100h-15.1992z" fill="#ff52ae" transform="matrix(.133344 0 0 -.13333733 205.032 57.553333)"/><path clip-path="url(#al)" d="m585.898 0h15.2031v100h-15.2031z" fill="#ff57a8" transform="matrix(.133344 0 0 -.13333733 205.032 57.553333)"/><path clip-path="url(#am)" d="m596 0h15.1992v100h-15.1992z" fill="#ff5ca3" transform="matrix(.133344 0 0 -.13333733 205.032 57.553333)"/><path clip-path="url(#an)" d="m606.102 0h15.1992v100h-15.1992z" fill="#ff619e" transform="matrix(.133344 0 0 -.13333733 205.032 57.553333)"/><path clip-path="url(#ao)" d="m616.199 0h15.1992v100h-15.1992z" fill="#ff6798" transform="matrix(.133344 0 0 -.13333733 205.032 57.553333)"/><path clip-path="url(#ap)" d="m626.301 0h15.1992v100h-15.1992z" fill="#ff6c93" transform="matrix(.133344 0 0 -.13333733 205.032 57.553333)"/><path clip-path="url(#aq)" d="m636.398 0h15.2031v100h-15.2031z" fill="#ff728d" transform="matrix(.133344 0 0 -.13333733 205.032 57.553333)"/><path clip-path="url(#ar)" d="m646.5 0h15.1992v100h-15.1992z" fill="#f78" transform="matrix(.133344 0 0 -.13333733 205.032 57.553333)"/><path clip-path="url(#as)" d="m656.602 0h15.1992v100h-15.1992z" fill="#ff7c83" transform="matrix(.133344 0 0 -.13333733 205.032 57.553333)"/><path clip-path="url(#at)" d="m666.699 0h15.1992v100h-15.1992z" fill="#ff817e" transform="matrix(.133344 0 0 -.13333733 205.032 57.553333)"/><path clip-path="url(#au)" d="m676.801 0h15.1992v100h-15.1992z" fill="#ff8679" transform="matrix(.133344 0 0 -.13333733 205.032 57.553333)"/><path clip-path="url(#av)" d="m686.898 0h15.2031v100h-15.2031z" fill="#ff8c72" transform="matrix(.133344 0 0 -.13333733 205.032 57.553333)"/><path clip-path="url(#aw)" d="m697 0h15.1992v100h-15.1992z" fill="#ff916d" transform="matrix(.133344 0 0 -.13333733 205.032 57.553333)"/><path clip-path="url(#ax)" d="m707.102 0h15.1992v100h-15.1992z" fill="#ff9668" transform="matrix(.133344 0 0 -.13333733 205.032 57.553333)"/><path clip-path="url(#ay)" d="m717.199 0h15.1992v100h-15.1992z" fill="#ff9b63" transform="matrix(.133344 0 0 -.13333733 205.032 57.553333)"/><path clip-path="url(#az)" d="m727.301 0h15.1992v100h-15.1992z" fill="#ffa05d" transform="matrix(.133344 0 0 -.13333733 205.032 57.553333)"/><path clip-path="url(#aA)" d="m737.398 0h15.2031v100h-15.2031z" fill="#ffa657" transform="matrix(.133344 0 0 -.13333733 205.032 57.553333)"/><path clip-path="url(#aB)" d="m747.5 0h15.1992v100h-15.1992z" fill="#ffab52" transform="matrix(.133344 0 0 -.13333733 205.032 57.553333)"/><path clip-path="url(#aC)" d="m757.602 0h15.1992v100h-15.1992z" fill="#ffb04c" transform="matrix(.133344 0 0 -.13333733 205.032 57.553333)"/><path clip-path="url(#aD)" d="m767.699 0h15.1992v100h-15.1992z" fill="#ffb547" transform="matrix(.133344 0 0 -.13333733 205.032 57.553333)"/><path clip-path="url(#aE)" d="m777.801 0h15.1992v100h-15.1992z" fill="#ffbb40" transform="matrix(.133344 0 0 -.13333733 205.032 57.553333)"/><path clip-path="url(#aF)" d="m787.898 0h15.2031v100h-15.2031z" fill="#ffc03a" transform="matrix(.133344 0 0 -.13333733 205.032 57.553333)"/><path clip-path="url(#aG)" d="m798 0h15.1992v100h-15.1992z" fill="#ffc534" transform="matrix(.133344 0 0 -.13333733 205.032 57.553333)"/><path clip-path="url(#aH)" d="m808.102 0h15.1992v100h-15.1992z" fill="#ffca2f" transform="matrix(.133344 0 0 -.13333733 205.032 57.553333)"/><path clip-path="url(#aI)" d="m818.199 0h15.1992v100h-15.1992z" fill="#ffcf28" transform="matrix(.133344 0 0 -.13333733 205.032 57.553333)"/><path clip-path="url(#aJ)" d="m828.301 0h15.1992v100h-15.1992z" fill="#ffd520" transform="matrix(.133344 0 0 -.13333733 205.032 57.553333)"/><path clip-path="url(#aK)" d="m838.398 0h15.2031v100h-15.2031z" fill="#ffda17" transform="matrix(.133344 0 0 -.13333733 205.032 57.553333)"/><path clip-path="url(#aL)" d="m848.5 0h15.1992v100h-15.1992z" fill="#ffdf09" transform="matrix(.133344 0 0 -.13333733 205.032 57.553333)"/><path clip-path="url(#aM)" d="m858.602 0h15.1992v100h-15.1992z" fill="#ffe500" transform="matrix(.133344 0 0 -.13333733 205.032 57.553333)"/><path clip-path="url(#aN)" d="m868.699 0h15.1992v100h-15.1992z" fill="#ffea00" transform="matrix(.133344 0 0 -.13333733 205.032 57.553333)"/><path clip-path="url(#aO)" d="m878.801 0h15.1992v100h-15.1992z" fill="#fff000" transform="matrix(.133344 0 0 -.13333733 205.032 57.553333)"/><path clip-path="url(#aP)" d="m888.898 0h15.2031v100h-15.2031z" fill="#fff500" transform="matrix(.133344 0 0 -.13333733 205.032 57.553333)"/><path clip-path="url(#aQ)" d="m899 0h15.1992v100h-15.1992z" fill="#fffa00" transform="matrix(.133344 0 0 -.13333733 205.032 57.553333)"/><path clip-path="url(#aR)" d="m909.102 0h15.1992v100h-15.1992z" fill="#ff0" transform="matrix(.133344 0 0 -.13333733 205.032 57.553333)"/><path clip-path="url(#aS)" d="m919.199 0h15.1992v100h-15.1992z" fill="#ff0" transform="matrix(.133344 0 0 -.13333733 205.032 57.553333)"/><path clip-path="url(#aT)" d="m929.301 0h15.1992v100h-15.1992z" fill="#ffff31" transform="matrix(.133344 0 0 -.13333733 205.032 57.553333)"/><path clip-path="url(#aU)" d="m939.398 0h15.2031v100h-15.2031z" fill="#ffff56" transform="matrix(.133344 0 0 -.13333733 205.032 57.553333)"/><path clip-path="url(#aV)" d="m949.5 0h15.1992v100h-15.1992z" fill="#ffff79" transform="matrix(.133344 0 0 -.13333733 205.032 57.553333)"/><path clip-path="url(#aW)" d="m959.602 0h15.1992v100h-15.1992z" fill="#ffff9b" transform="matrix(.133344 0 0 -.13333733 205.032 57.553333)"/><path clip-path="url(#aX)" d="m969.699 0h15.1992v100h-15.1992z" fill="#ffffbd" transform="matrix(.133344 0 0 -.13333733 205.032 57.553333)"/><path clip-path="url(#aY)" d="m979.801 0h15.1992v100h-15.1992z" fill="#ffd" transform="matrix(.133344 0 0 -.13333733 205.032 57.553333)"/><path clip-path="url(#aZ)" d="m989.898 0h10.1016v100h-10.1016z" fill="#fff" transform="matrix(.133344 0 0 -.13333733 205.032 57.553333)"/><path d="m0 0h1000v100h-1000z" style="fill:none;stroke:#d3d3d3;stroke-width:1.9;stroke-linecap:round;stroke-linejoin:round;stroke-miterlimit:10;clip-path:url(#a0)" transform="matrix(.133344 0 0 -.13333733 205.032 57.553333)"/></g><text clip-path="url(#a2)" transform="matrix(1.3333333 0 0 1.3333333 372.776 56.266667)"><tspan font-family="Standard Symbols L" font-size="8.9664" x="0" y="0">∞</tspan><tspan font-family="Nimbus Roman No9 L" font-size="8.9664" x="37.417999 64.030273 89.817642" y="0">–––</tspan></text><path clip-path="url(#a3)" d="m0 0h382.271" fill="none" stroke="#000" stroke-miterlimit="10" stroke-width=".797" transform="matrix(1.3333333 0 0 -1.3333333 2.661333 63.469333)"/></g></svg>