<svg height="98.666664" viewBox="0 0 514.66669 98.666664" width="514.66669" xmlns="http://www.w3.org/2000/svg" xmlns:xlink="http://www.w3.org/1999/xlink"><clipPath id="a"><path d="m0 0h996.264v73.022h-996.264z" transform="matrix(1 0 0 -1 0 64.653002)"/></clipPath><clipPath id="b"><path d="m0 0h996.264v73.022h-996.264z" transform="translate(0 -58.676001)"/></clipPath><clipPath id="c"><path d="m0 0h996.264v73.022h-996.264z" transform="matrix(1 0 0 -1 -21.427001 47.819001)"/></clipPath><clipPath id="d"><path d="m0 0h996.264v73.022h-996.264z" transform="translate(0 -42.517001)"/></clipPath><clipPath id="e"><path d="m0 0h996.264v73.022h-996.264z" transform="matrix(1 0 0 -1 -5.978 30.445001)"/></clipPath><clipPath id="f"><path d="m0 0h100v10h-100z" transform="matrix(10 0 0 10 0 .000002)"/></clipPath><clipPath id="g"><path d="m0 0h100v10h-100z" transform="matrix(10 0 0 10 0 .000002)"/></clipPath><clipPath id="h"><path d="m0 0h100v10h-100z" transform="matrix(10 0 0 10 0 .000002)"/></clipPath><clipPath id="i"><path d="m0 0h100v10h-100z" transform="matrix(10 0 0 10 0 .000002)"/></clipPath><clipPath id="j"><path d="m0 0h100v10h-100z" transform="matrix(10 0 0 10 0 .000002)"/></clipPath><clipPath id="k"><path d="m0 0h100v10h-100z" transform="matrix(10 0 0 10 0 .000002)"/></clipPath><clipPath id="l"><path d="m0 0h100v10h-100z" transform="matrix(10 0 0 10 0 .000002)"/></clipPath><clipPath id="m"><path d="m0 0h100v10h-100z" transform="matrix(10 0 0 10 0 .000002)"/></clipPath><clipPath id="n"><path d="m0 0h100v10h-100z" transform="matrix(10 0 0 10 0 .000002)"/></clipPath><clipPath id="o"><path d="m0 0h100v10h-100z" transform="matrix(10 0 0 10 0 .000002)"/></clipPath><clipPath id="p"><path d="m0 0h100v10h-100z" transform="matrix(10 0 0 10 0 .000002)"/></clipPath><clipPath id="q"><path d="m0 0h100v10h-100z" transform="matrix(10 0 0 10 0 .000002)"/></clipPath><clipPath id="r"><path d="m0 0h100v10h-100z" transform="matrix(10 0 0 10 0 .000002)"/></clipPath><clipPath id="s"><path d="m0 0h100v10h-100z" transform="matrix(10 0 0 10 0 .000002)"/></clipPath><clipPath id="t"><path d="m0 0h100v10h-100z" transform="matrix(10 0 0 10 0 .000002)"/></clipPath><clipPath id="u"><path d="m0 0h100v10h-100z" transform="matrix(10 0 0 10 0 .000002)"/></clipPath><clipPath id="v"><path d="m0 0h100v10h-100z" transform="matrix(10 0 0 10 0 .000002)"/></clipPath><clipPath id="w"><path d="m0 0h100v10h-100z" transform="matrix(10 0 0 10 0 .000002)"/></clipPath><clipPath id="x"><path d="m0 0h100v10h-100z" transform="matrix(10 0 0 10 0 .000002)"/></clipPath><clipPath id="y"><path d="m0 0h100v10h-100z" transform="matrix(10 0 0 10 0 .000002)"/></clipPath><clipPath id="z"><path d="m0 0h100v10h-100z" transform="matrix(10 0 0 10 0 .000002)"/></clipPath><clipPath id="A"><path d="m0 0h100v10h-100z" transform="matrix(10 0 0 10 0 .000002)"/></clipPath><clipPath id="B"><path d="m0 0h100v10h-100z" transform="matrix(10 0 0 10 0 .000002)"/></clipPath><clipPath id="C"><path d="m0 0h100v10h-100z" transform="matrix(10 0 0 10 0 .000002)"/></clipPath><clipPath id="D"><path d="m0 0h100v10h-100z" transform="matrix(10 0 0 10 0 .000002)"/></clipPath><clipPath id="E"><path d="m0 0h100v10h-100z" transform="matrix(10 0 0 10 0 .000002)"/></clipPath><clipPath id="F"><path d="m0 0h100v10h-100z" transform="matrix(10 0 0 10 0 .000002)"/></clipPath><clipPath id="G"><path d="m0 0h100v10h-100z" transform="matrix(10 0 0 10 0 .000002)"/></clipPath><clipPath id="H"><path d="m0 0h100v10h-100z" transform="matrix(10 0 0 10 0 .000002)"/></clipPath><clipPath id="I"><path d="m0 0h100v10h-100z" transform="matrix(10 0 0 10 0 .000002)"/></clipPath><clipPath id="J"><path d="m0 0h100v10h-100z" transform="matrix(10 0 0 10 0 .000002)"/></clipPath><clipPath id="K"><path d="m0 0h100v10h-100z" transform="matrix(10 0 0 10 0 .000002)"/></clipPath><clipPath id="L"><path d="m0 0h100v10h-100z" transform="matrix(10 0 0 10 0 .000002)"/></clipPath><clipPath id="M"><path d="m0 0h100v10h-100z" transform="matrix(10 0 0 10 0 .000002)"/></clipPath><clipPath id="N"><path d="m0 0h100v10h-100z" transform="matrix(10 0 0 10 0 .000002)"/></clipPath><clipPath id="O"><path d="m0 0h100v10h-100z" transform="matrix(10 0 0 10 0 .000002)"/></clipPath><clipPath id="P"><path d="m0 0h100v10h-100z" transform="matrix(10 0 0 10 0 .000002)"/></clipPath><clipPath id="Q"><path d="m0 0h100v10h-100z" transform="matrix(10 0 0 10 0 .000002)"/></clipPath><clipPath id="R"><path d="m0 0h100v10h-100z" transform="matrix(10 0 0 10 0 .000002)"/></clipPath><clipPath id="S"><path d="m0 0h100v10h-100z" transform="matrix(10 0 0 10 0 .000002)"/></clipPath><clipPath id="T"><path d="m0 0h100v10h-100z" transform="matrix(10 0 0 10 0 .000002)"/></clipPath><clipPath id="U"><path d="m0 0h100v10h-100z" transform="matrix(10 0 0 10 0 .000002)"/></clipPath><clipPath id="V"><path d="m0 0h100v10h-100z" transform="matrix(10 0 0 10 0 .000002)"/></clipPath><clipPath id="W"><path d="m0 0h100v10h-100z" transform="matrix(10 0 0 10 0 .000002)"/></clipPath><clipPath id="X"><path d="m0 0h100v10h-100z" transform="matrix(10 0 0 10 0 .000002)"/></clipPath><clipPath id="Y"><path d="m0 0h100v10h-100z" transform="matrix(10 0 0 10 0 .000002)"/></clipPath><clipPath id="Z"><path d="m0 0h100v10h-100z" transform="matrix(10 0 0 10 0 .000002)"/></clipPath><clipPath id="aa"><path d="m0 0h100v10h-100z" transform="matrix(10 0 0 10 0 .000002)"/></clipPath><clipPath id="ab"><path d="m0 0h100v10h-100z" transform="matrix(10 0 0 10 0 .000002)"/></clipPath><clipPath id="ac"><path d="m0 0h100v10h-100z" transform="matrix(10 0 0 10 0 .000002)"/></clipPath><clipPath id="ad"><path d="m0 0h100v10h-100z" transform="matrix(10 0 0 10 0 .000002)"/></clipPath><clipPath id="ae"><path d="m0 0h100v10h-100z" transform="matrix(10 0 0 10 0 .000002)"/></clipPath><clipPath id="af"><path d="m0 0h100v10h-100z" transform="matrix(10 0 0 10 0 .000002)"/></clipPath><clipPath id="ag"><path d="m0 0h100v10h-100z" transform="matrix(10 0 0 10 0 .000002)"/></clipPath><clipPath id="ah"><path d="m0 0h100v10h-100z" transform="matrix(10 0 0 10 0 .000002)"/></clipPath><clipPath id="ai"><path d="m0 0h100v10h-100z" transform="matrix(10 0 0 10 0 .000002)"/></clipPath><clipPath id="aj"><path d="m0 0h100v10h-100z" transform="matrix(10 0 0 10 0 .000002)"/></clipPath><clipPath id="ak"><path d="m0 0h100v10h-100z" transform="matrix(10 0 0 10 0 .000002)"/></clipPath><clipPath id="al"><path d="m0 0h100v10h-100z" transform="matrix(10 0 0 10 0 .000002)"/></clipPath><clipPath id="am"><path d="m0 0h100v10h-100z" transform="matrix(10 0 0 10 0 .000002)"/></clipPath><clipPath id="an"><path d="m0 0h100v10h-100z" transform="matrix(10 0 0 10 0 .000002)"/></clipPath><clipPath id="ao"><path d="m0 0h100v10h-100z" transform="matrix(10 0 0 10 0 .000002)"/></clipPath><clipPath id="ap"><path d="m0 0h100v10h-100z" transform="matrix(10 0 0 10 0 .000002)"/></clipPath><clipPath id="aq"><path d="m0 0h100v10h-100z" transform="matrix(10 0 0 10 0 .000002)"/></clipPath><clipPath id="ar"><path d="m0 0h100v10h-100z" transform="matrix(10 0 0 10 0 .000002)"/></clipPath><clipPath id="as"><path d="m0 0h100v10h-100z" transform="matrix(10 0 0 10 0 .000002)"/></clipPath><clipPath id="at"><path d="m0 0h100v10h-100z" transform="matrix(10 0 0 10 0 .000002)"/></clipPath><clipPath id="au"><path d="m0 0h100v10h-100z" transform="matrix(10 0 0 10 0 .000002)"/></clipPath><clipPath id="av"><path d="m0 0h100v10h-100z" transform="matrix(10 0 0 10 0 .000002)"/></clipPath><clipPath id="aw"><path d="m0 0h100v10h-100z" transform="matrix(10 0 0 10 0 .000002)"/></clipPath><clipPath id="ax"><path d="m0 0h100v10h-100z" transform="matrix(10 0 0 10 0 .000002)"/></clipPath><clipPath id="ay"><path d="m0 0h100v10h-100z" transform="matrix(10 0 0 10 0 .000002)"/></clipPath><clipPath id="az"><path d="m0 0h100v10h-100z" transform="matrix(10 0 0 10 0 .000002)"/></clipPath><clipPath id="aA"><path d="m0 0h100v10h-100z" transform="matrix(10 0 0 10 0 .000002)"/></clipPath><clipPath id="aB"><path d="m0 0h100v10h-100z" transform="matrix(10 0 0 10 0 .000002)"/></clipPath><clipPath id="aC"><path d="m0 0h100v10h-100z" transform="matrix(10 0 0 10 0 .000002)"/></clipPath><clipPath id="aD"><path d="m0 0h100v10h-100z" transform="matrix(10 0 0 10 0 .000002)"/></clipPath><clipPath id="aE"><path d="m0 0h100v10h-100z" transform="matrix(10 0 0 10 0 .000002)"/></clipPath><clipPath id="aF"><path d="m0 0h100v10h-100z" transform="matrix(10 0 0 10 0 .000002)"/></clipPath><clipPath id="aG"><path d="m0 0h100v10h-100z" transform="matrix(10 0 0 10 0 .000002)"/></clipPath><clipPath id="aH"><path d="m0 0h100v10h-100z" transform="matrix(10 0 0 10 0 .000002)"/></clipPath><clipPath id="aI"><path d="m0 0h100v10h-100z" transform="matrix(10 0 0 10 0 .000002)"/></clipPath><clipPath id="aJ"><path d="m0 0h100v10h-100z" transform="matrix(10 0 0 10 0 .000002)"/></clipPath><clipPath id="aK"><path d="m0 0h100v10h-100z" transform="matrix(10 0 0 10 0 .000002)"/></clipPath><clipPath id="aL"><path d="m0 0h100v10h-100z" transform="matrix(10 0 0 10 0 .000002)"/></clipPath><clipPath id="aM"><path d="m0 0h100v10h-100z" transform="matrix(10 0 0 10 0 .000002)"/></clipPath><clipPath id="aN"><path d="m0 0h100v10h-100z" transform="matrix(10 0 0 10 0 .000002)"/></clipPath><clipPath id="aO"><path d="m0 0h100v10h-100z" transform="matrix(10 0 0 10 0 .000002)"/></clipPath><clipPath id="aP"><path d="m0 0h100v10h-100z" transform="matrix(10 0 0 10 0 .000002)"/></clipPath><clipPath id="aQ"><path d="m0 0h100v10h-100z" transform="matrix(10 0 0 10 0 .000002)"/></clipPath><clipPath id="aR"><path d="m0 0h100v10h-100z" transform="matrix(10 0 0 10 0 .000002)"/></clipPath><clipPath id="aS"><path d="m0 0h100v10h-100z" transform="matrix(10 0 0 10 0 .000002)"/></clipPath><clipPath id="aT"><path d="m0 0h100v10h-100z" transform="matrix(10 0 0 10 0 .000002)"/></clipPath><clipPath id="aU"><path d="m0 0h100v10h-100z" transform="matrix(10 0 0 10 0 .000002)"/></clipPath><clipPath id="aV"><path d="m0 0h100v10h-100z" transform="matrix(10 0 0 10 0 .000002)"/></clipPath><clipPath id="aW"><path d="m0 0h100v10h-100z" transform="matrix(10 0 0 10 0 .000002)"/></clipPath><clipPath id="aX"><path d="m0 0h100v10h-100z" transform="matrix(10 0 0 10 0 .000002)"/></clipPath><clipPath id="aY"><path d="m0 0h100v10h-100z" transform="matrix(10 0 0 10 0 .000002)"/></clipPath><clipPath id="aZ"><path d="m0 0h100v10h-100z" transform="matrix(10 0 0 10 0 .000002)"/></clipPath><clipPath id="a0"><path d="m0 0h100v10h-100z" transform="matrix(10 0 0 10 0 .000002)"/></clipPath><clipPath id="a1"><path d="m0 0h996.264v73.022h-996.264z" transform="matrix(1.3333333 0 0 -1.3333333 2.661333 97.333333)"/></clipPath><clipPath id="a2"><path d="m0 0h996.264v73.022h-996.264z" transform="matrix(1 0 0 -1 -277.58601 30.445001)"/></clipPath><clipPath id="a3"><path d="m0 0h10v10h-10z" transform="matrix(10 0 0 10 .000025 .000002)"/></clipPath><clipPath id="a4"><path d="m0 0h996.264v73.022h-996.264z" transform="matrix(1.3333333 0 0 -1.3333333 2.661333 97.333333)"/></clipPath><clipPath id="a5"><path d="m0 0h10v10h-10z" transform="matrix(10 0 0 10 0 .000002)"/></clipPath><clipPath id="a6"><path d="m0 0h996.264v73.022h-996.264z" transform="matrix(1.3333333 0 0 -1.3333333 2.661333 97.333333)"/></clipPath><clipPath id="a7"><path d="m0 0h10v10h-10z" transform="matrix(10 0 0 10 0 .000002)"/></clipPath><clipPath id="a8"><path d="m0 0h996.264v73.022h-996.264z" transform="matrix(1.3333333 0 0 -1.3333333 2.661333 97.333333)"/></clipPath><clipPath id="a9"><path d="m0 0h996.264v73.022h-996.264z" transform="matrix(1 0 0 -1 -68.956002 18.123001)"/></clipPath><clipPath id="ba"><path d="m0 0h100v10h-100z" transform="matrix(10 0 0 10 0 -.000002)"/></clipPath><clipPath id="bb"><path d="m0 0h100v10h-100z" transform="matrix(10 0 0 10 0 -.000002)"/></clipPath><clipPath id="bc"><path d="m0 0h100v10h-100z" transform="matrix(10 0 0 10 0 -.000002)"/></clipPath><clipPath id="bd"><path d="m0 0h100v10h-100z" transform="matrix(10 0 0 10 0 -.000002)"/></clipPath><clipPath id="be"><path d="m0 0h100v10h-100z" transform="matrix(10 0 0 10 0 -.000002)"/></clipPath><clipPath id="bf"><path d="m0 0h100v10h-100z" transform="matrix(10 0 0 10 0 -.000002)"/></clipPath><clipPath id="bg"><path d="m0 0h100v10h-100z" transform="matrix(10 0 0 10 0 -.000002)"/></clipPath><clipPath id="bh"><path d="m0 0h100v10h-100z" transform="matrix(10 0 0 10 0 -.000002)"/></clipPath><clipPath id="bi"><path d="m0 0h100v10h-100z" transform="matrix(10 0 0 10 0 -.000002)"/></clipPath><clipPath id="bj"><path d="m0 0h100v10h-100z" transform="matrix(10 0 0 10 0 -.000002)"/></clipPath><clipPath id="bk"><path d="m0 0h100v10h-100z" transform="matrix(10 0 0 10 0 -.000002)"/></clipPath><clipPath id="bl"><path d="m0 0h100v10h-100z" transform="matrix(10 0 0 10 0 -.000002)"/></clipPath><clipPath id="bm"><path d="m0 0h100v10h-100z" transform="matrix(10 0 0 10 0 -.000002)"/></clipPath><clipPath id="bn"><path d="m0 0h100v10h-100z" transform="matrix(10 0 0 10 0 -.000002)"/></clipPath><clipPath id="bo"><path d="m0 0h100v10h-100z" transform="matrix(10 0 0 10 0 -.000002)"/></clipPath><clipPath id="bp"><path d="m0 0h100v10h-100z" transform="matrix(10 0 0 10 0 -.000002)"/></clipPath><clipPath id="bq"><path d="m0 0h100v10h-100z" transform="matrix(10 0 0 10 0 -.000002)"/></clipPath><clipPath id="br"><path d="m0 0h100v10h-100z" transform="matrix(10 0 0 10 0 -.000002)"/></clipPath><clipPath id="bs"><path d="m0 0h100v10h-100z" transform="matrix(10 0 0 10 0 -.000002)"/></clipPath><clipPath id="bt"><path d="m0 0h100v10h-100z" transform="matrix(10 0 0 10 0 -.000002)"/></clipPath><clipPath id="bu"><path d="m0 0h100v10h-100z" transform="matrix(10 0 0 10 0 -.000002)"/></clipPath><clipPath id="bv"><path d="m0 0h100v10h-100z" transform="matrix(10 0 0 10 0 -.000002)"/></clipPath><clipPath id="bw"><path d="m0 0h100v10h-100z" transform="matrix(10 0 0 10 0 -.000002)"/></clipPath><clipPath id="bx"><path d="m0 0h100v10h-100z" transform="matrix(10 0 0 10 0 -.000002)"/></clipPath><clipPath id="by"><path d="m0 0h100v10h-100z" transform="matrix(10 0 0 10 0 -.000002)"/></clipPath><clipPath id="bz"><path d="m0 0h100v10h-100z" transform="matrix(10 0 0 10 0 -.000002)"/></clipPath><clipPath id="bA"><path d="m0 0h100v10h-100z" transform="matrix(10 0 0 10 0 -.000002)"/></clipPath><clipPath id="bB"><path d="m0 0h100v10h-100z" transform="matrix(10 0 0 10 0 -.000002)"/></clipPath><clipPath id="bC"><path d="m0 0h100v10h-100z" transform="matrix(10 0 0 10 0 -.000002)"/></clipPath><clipPath id="bD"><path d="m0 0h100v10h-100z" transform="matrix(10 0 0 10 0 -.000002)"/></clipPath><clipPath id="bE"><path d="m0 0h100v10h-100z" transform="matrix(10 0 0 10 0 -.000002)"/></clipPath><clipPath id="bF"><path d="m0 0h100v10h-100z" transform="matrix(10 0 0 10 0 -.000002)"/></clipPath><clipPath id="bG"><path d="m0 0h100v10h-100z" transform="matrix(10 0 0 10 0 -.000002)"/></clipPath><clipPath id="bH"><path d="m0 0h100v10h-100z" transform="matrix(10 0 0 10 0 -.000002)"/></clipPath><clipPath id="bI"><path d="m0 0h100v10h-100z" transform="matrix(10 0 0 10 0 -.000002)"/></clipPath><clipPath id="bJ"><path d="m0 0h100v10h-100z" transform="matrix(10 0 0 10 0 -.000002)"/></clipPath><clipPath id="bK"><path d="m0 0h100v10h-100z" transform="matrix(10 0 0 10 0 -.000002)"/></clipPath><clipPath id="bL"><path d="m0 0h100v10h-100z" transform="matrix(10 0 0 10 0 -.000002)"/></clipPath><clipPath id="bM"><path d="m0 0h100v10h-100z" transform="matrix(10 0 0 10 0 -.000002)"/></clipPath><clipPath id="bN"><path d="m0 0h100v10h-100z" transform="matrix(10 0 0 10 0 -.000002)"/></clipPath><clipPath id="bO"><path d="m0 0h100v10h-100z" transform="matrix(10 0 0 10 0 -.000002)"/></clipPath><clipPath id="bP"><path d="m0 0h100v10h-100z" transform="matrix(10 0 0 10 0 -.000002)"/></clipPath><clipPath id="bQ"><path d="m0 0h100v10h-100z" transform="matrix(10 0 0 10 0 -.000002)"/></clipPath><clipPath id="bR"><path d="m0 0h100v10h-100z" transform="matrix(10 0 0 10 0 -.000002)"/></clipPath><clipPath id="bS"><path d="m0 0h100v10h-100z" transform="matrix(10 0 0 10 0 -.000002)"/></clipPath><clipPath id="bT"><path d="m0 0h100v10h-100z" transform="matrix(10 0 0 10 0 -.000002)"/></clipPath><clipPath id="bU"><path d="m0 0h100v10h-100z" transform="matrix(10 0 0 10 0 -.000002)"/></clipPath><clipPath id="bV"><path d="m0 0h100v10h-100z" transform="matrix(10 0 0 10 0 -.000002)"/></clipPath><clipPath id="bW"><path d="m0 0h100v10h-100z" transform="matrix(10 0 0 10 0 -.000002)"/></clipPath><clipPath id="bX"><path d="m0 0h100v10h-100z" transform="matrix(10 0 0 10 0 -.000002)"/></clipPath><clipPath id="bY"><path d="m0 0h100v10h-100z" transform="matrix(10 0 0 10 0 -.000002)"/></clipPath><clipPath id="bZ"><path d="m0 0h100v10h-100z" transform="matrix(10 0 0 10 0 -.000002)"/></clipPath><clipPath id="b0"><path d="m0 0h100v10h-100z" transform="matrix(10 0 0 10 0 -.000002)"/></clipPath><clipPath id="b1"><path d="m0 0h100v10h-100z" transform="matrix(10 0 0 10 0 -.000002)"/></clipPath><clipPath id="b2"><path d="m0 0h100v10h-100z" transform="matrix(10 0 0 10 0 -.000002)"/></clipPath><clipPath id="b3"><path d="m0 0h100v10h-100z" transform="matrix(10 0 0 10 0 -.000002)"/></clipPath><clipPath id="b4"><path d="m0 0h100v10h-100z" transform="matrix(10 0 0 10 0 -.000002)"/></clipPath><clipPath id="b5"><path d="m0 0h100v10h-100z" transform="matrix(10 0 0 10 0 -.000002)"/></clipPath><clipPath id="b6"><path d="m0 0h100v10h-100z" transform="matrix(10 0 0 10 0 -.000002)"/></clipPath><clipPath id="b7"><path d="m0 0h100v10h-100z" transform="matrix(10 0 0 10 0 -.000002)"/></clipPath><clipPath id="b8"><path d="m0 0h100v10h-100z" transform="matrix(10 0 0 10 0 -.000002)"/></clipPath><clipPath id="b9"><path d="m0 0h100v10h-100z" transform="matrix(10 0 0 10 0 -.000002)"/></clipPath><clipPath id="ca"><path d="m0 0h100v10h-100z" transform="matrix(10 0 0 10 0 -.000002)"/></clipPath><clipPath id="cb"><path d="m0 0h100v10h-100z" transform="matrix(10 0 0 10 0 -.000002)"/></clipPath><clipPath id="cc"><path d="m0 0h100v10h-100z" transform="matrix(10 0 0 10 0 -.000002)"/></clipPath><clipPath id="cd"><path d="m0 0h100v10h-100z" transform="matrix(10 0 0 10 0 -.000002)"/></clipPath><clipPath id="ce"><path d="m0 0h100v10h-100z" transform="matrix(10 0 0 10 0 -.000002)"/></clipPath><clipPath id="cf"><path d="m0 0h100v10h-100z" transform="matrix(10 0 0 10 0 -.000002)"/></clipPath><clipPath id="cg"><path d="m0 0h100v10h-100z" transform="matrix(10 0 0 10 0 -.000002)"/></clipPath><clipPath id="ch"><path d="m0 0h100v10h-100z" transform="matrix(10 0 0 10 0 -.000002)"/></clipPath><clipPath id="ci"><path d="m0 0h100v10h-100z" transform="matrix(10 0 0 10 0 -.000002)"/></clipPath><clipPath id="cj"><path d="m0 0h100v10h-100z" transform="matrix(10 0 0 10 0 -.000002)"/></clipPath><clipPath id="ck"><path d="m0 0h100v10h-100z" transform="matrix(10 0 0 10 0 -.000002)"/></clipPath><clipPath id="cl"><path d="m0 0h100v10h-100z" transform="matrix(10 0 0 10 0 -.000002)"/></clipPath><clipPath id="cm"><path d="m0 0h100v10h-100z" transform="matrix(10 0 0 10 0 -.000002)"/></clipPath><clipPath id="cn"><path d="m0 0h100v10h-100z" transform="matrix(10 0 0 10 0 -.000002)"/></clipPath><clipPath id="co"><path d="m0 0h100v10h-100z" transform="matrix(10 0 0 10 0 -.000002)"/></clipPath><clipPath id="cp"><path d="m0 0h100v10h-100z" transform="matrix(10 0 0 10 0 -.000002)"/></clipPath><clipPath id="cq"><path d="m0 0h100v10h-100z" transform="matrix(10 0 0 10 0 -.000002)"/></clipPath><clipPath id="cr"><path d="m0 0h100v10h-100z" transform="matrix(10 0 0 10 0 -.000002)"/></clipPath><clipPath id="cs"><path d="m0 0h100v10h-100z" transform="matrix(10 0 0 10 0 -.000002)"/></clipPath><clipPath id="ct"><path d="m0 0h100v10h-100z" transform="matrix(10 0 0 10 0 -.000002)"/></clipPath><clipPath id="cu"><path d="m0 0h100v10h-100z" transform="matrix(10 0 0 10 0 -.000002)"/></clipPath><clipPath id="cv"><path d="m0 0h100v10h-100z" transform="matrix(10 0 0 10 0 -.000002)"/></clipPath><clipPath id="cw"><path d="m0 0h100v10h-100z" transform="matrix(10 0 0 10 0 -.000002)"/></clipPath><clipPath id="cx"><path d="m0 0h100v10h-100z" transform="matrix(10 0 0 10 0 -.000002)"/></clipPath><clipPath id="cy"><path d="m0 0h100v10h-100z" transform="matrix(10 0 0 10 0 -.000002)"/></clipPath><clipPath id="cz"><path d="m0 0h100v10h-100z" transform="matrix(10 0 0 10 0 -.000002)"/></clipPath><clipPath id="cA"><path d="m0 0h100v10h-100z" transform="matrix(10 0 0 10 0 -.000002)"/></clipPath><clipPath id="cB"><path d="m0 0h100v10h-100z" transform="matrix(10 0 0 10 0 -.000002)"/></clipPath><clipPath id="cC"><path d="m0 0h100v10h-100z" transform="matrix(10 0 0 10 0 -.000002)"/></clipPath><clipPath id="cD"><path d="m0 0h100v10h-100z" transform="matrix(10 0 0 10 0 -.000002)"/></clipPath><clipPath id="cE"><path d="m0 0h100v10h-100z" transform="matrix(10 0 0 10 0 -.000002)"/></clipPath><clipPath id="cF"><path d="m0 0h100v10h-100z" transform="matrix(10 0 0 10 0 -.000002)"/></clipPath><clipPath id="cG"><path d="m0 0h100v10h-100z" transform="matrix(10 0 0 10 0 -.000002)"/></clipPath><clipPath id="cH"><path d="m0 0h100v10h-100z" transform="matrix(10 0 0 10 0 -.000002)"/></clipPath><clipPath id="cI"><path d="m0 0h100v10h-100z" transform="matrix(10 0 0 10 0 -.000002)"/></clipPath><clipPath id="cJ"><path d="m0 0h100v10h-100z" transform="matrix(10 0 0 10 0 -.000002)"/></clipPath><clipPath id="cK"><path d="m0 0h100v10h-100z" transform="matrix(10 0 0 10 0 -.000002)"/></clipPath><clipPath id="cL"><path d="m0 0h100v10h-100z" transform="matrix(10 0 0 10 0 -.000002)"/></clipPath><clipPath id="cM"><path d="m0 0h996.264v73.022h-996.264z" transform="matrix(1.3333333 0 0 -1.3333333 2.661333 97.333333)"/></clipPath><clipPath id="cN"><path d="m0 0h996.264v73.022h-996.264z" transform="matrix(1 0 0 -1 -277.58601 18.123001)"/></clipPath><clipPath id="cO"><path d="m0 0h10v10h-10z" transform="matrix(10 0 0 10 .000025 -.000002)"/></clipPath><clipPath id="cP"><path d="m0 0h996.264v73.022h-996.264z" transform="matrix(1.3333333 0 0 -1.3333333 2.661333 97.333333)"/></clipPath><clipPath id="cQ"><path d="m0 0h10v10h-10z" transform="matrix(10 0 0 10 0 -.000002)"/></clipPath><clipPath id="cR"><path d="m0 0h996.264v73.022h-996.264z" transform="matrix(1.3333333 0 0 -1.3333333 2.661333 97.333333)"/></clipPath><clipPath id="cS"><path d="m0 0h10v10h-10z" transform="matrix(10 0 0 10 0 -.000002)"/></clipPath><clipPath id="cT"><path d="m0 0h996.264v73.022h-996.264z" transform="matrix(1.3333333 0 0 -1.3333333 2.661333 97.333333)"/></clipPath><clipPath id="cU"><path d="m0 0h996.264v73.022h-996.264z" transform="matrix(1 0 0 -1 -68.956002 5.8)"/></clipPath><clipPath id="cV"><path d="m0 0h100v10h-100z" transform="matrix(10 0 0 10 0 .000002)"/></clipPath><clipPath id="cW"><path d="m0 0h100v10h-100z" transform="matrix(10 0 0 10 0 .000002)"/></clipPath><clipPath id="cX"><path d="m0 0h100v10h-100z" transform="matrix(10 0 0 10 0 .000002)"/></clipPath><clipPath id="cY"><path d="m0 0h100v10h-100z" transform="matrix(10 0 0 10 0 .000002)"/></clipPath><clipPath id="cZ"><path d="m0 0h100v10h-100z" transform="matrix(10 0 0 10 0 .000002)"/></clipPath><clipPath id="c0"><path d="m0 0h100v10h-100z" transform="matrix(10 0 0 10 0 .000002)"/></clipPath><clipPath id="c1"><path d="m0 0h100v10h-100z" transform="matrix(10 0 0 10 0 .000002)"/></clipPath><clipPath id="c2"><path d="m0 0h100v10h-100z" transform="matrix(10 0 0 10 0 .000002)"/></clipPath><clipPath id="c3"><path d="m0 0h100v10h-100z" transform="matrix(10 0 0 10 0 .000002)"/></clipPath><clipPath id="c4"><path d="m0 0h100v10h-100z" transform="matrix(10 0 0 10 0 .000002)"/></clipPath><clipPath id="c5"><path d="m0 0h100v10h-100z" transform="matrix(10 0 0 10 0 .000002)"/></clipPath><clipPath id="c6"><path d="m0 0h100v10h-100z" transform="matrix(10 0 0 10 0 .000002)"/></clipPath><clipPath id="c7"><path d="m0 0h100v10h-100z" transform="matrix(10 0 0 10 0 .000002)"/></clipPath><clipPath id="c8"><path d="m0 0h100v10h-100z" transform="matrix(10 0 0 10 0 .000002)"/></clipPath><clipPath id="c9"><path d="m0 0h100v10h-100z" transform="matrix(10 0 0 10 0 .000002)"/></clipPath><clipPath id="da"><path d="m0 0h100v10h-100z" transform="matrix(10 0 0 10 0 .000002)"/></clipPath><clipPath id="db"><path d="m0 0h100v10h-100z" transform="matrix(10 0 0 10 0 .000002)"/></clipPath><clipPath id="dc"><path d="m0 0h100v10h-100z" transform="matrix(10 0 0 10 0 .000002)"/></clipPath><clipPath id="dd"><path d="m0 0h100v10h-100z" transform="matrix(10 0 0 10 0 .000002)"/></clipPath><clipPath id="de"><path d="m0 0h100v10h-100z" transform="matrix(10 0 0 10 0 .000002)"/></clipPath><clipPath id="df"><path d="m0 0h100v10h-100z" transform="matrix(10 0 0 10 0 .000002)"/></clipPath><clipPath id="dg"><path d="m0 0h100v10h-100z" transform="matrix(10 0 0 10 0 .000002)"/></clipPath><clipPath id="dh"><path d="m0 0h100v10h-100z" transform="matrix(10 0 0 10 0 .000002)"/></clipPath><clipPath id="di"><path d="m0 0h100v10h-100z" transform="matrix(10 0 0 10 0 .000002)"/></clipPath><clipPath id="dj"><path d="m0 0h100v10h-100z" transform="matrix(10 0 0 10 0 .000002)"/></clipPath><clipPath id="dk"><path d="m0 0h100v10h-100z" transform="matrix(10 0 0 10 0 .000002)"/></clipPath><clipPath id="dl"><path d="m0 0h100v10h-100z" transform="matrix(10 0 0 10 0 .000002)"/></clipPath><clipPath id="dm"><path d="m0 0h100v10h-100z" transform="matrix(10 0 0 10 0 .000002)"/></clipPath><clipPath id="dn"><path d="m0 0h100v10h-100z" transform="matrix(10 0 0 10 0 .000002)"/></clipPath><clipPath id="do"><path d="m0 0h100v10h-100z" transform="matrix(10 0 0 10 0 .000002)"/></clipPath><clipPath id="dp"><path d="m0 0h100v10h-100z" transform="matrix(10 0 0 10 0 .000002)"/></clipPath><clipPath id="dq"><path d="m0 0h100v10h-100z" transform="matrix(10 0 0 10 0 .000002)"/></clipPath><clipPath id="dr"><path d="m0 0h100v10h-100z" transform="matrix(10 0 0 10 0 .000002)"/></clipPath><clipPath id="ds"><path d="m0 0h100v10h-100z" transform="matrix(10 0 0 10 0 .000002)"/></clipPath><clipPath id="dt"><path d="m0 0h100v10h-100z" transform="matrix(10 0 0 10 0 .000002)"/></clipPath><clipPath id="du"><path d="m0 0h100v10h-100z" transform="matrix(10 0 0 10 0 .000002)"/></clipPath><clipPath id="dv"><path d="m0 0h100v10h-100z" transform="matrix(10 0 0 10 0 .000002)"/></clipPath><clipPath id="dw"><path d="m0 0h100v10h-100z" transform="matrix(10 0 0 10 0 .000002)"/></clipPath><clipPath id="dx"><path d="m0 0h100v10h-100z" transform="matrix(10 0 0 10 0 .000002)"/></clipPath><clipPath id="dy"><path d="m0 0h100v10h-100z" transform="matrix(10 0 0 10 0 .000002)"/></clipPath><clipPath id="dz"><path d="m0 0h100v10h-100z" transform="matrix(10 0 0 10 0 .000002)"/></clipPath><clipPath id="dA"><path d="m0 0h100v10h-100z" transform="matrix(10 0 0 10 0 .000002)"/></clipPath><clipPath id="dB"><path d="m0 0h100v10h-100z" transform="matrix(10 0 0 10 0 .000002)"/></clipPath><clipPath id="dC"><path d="m0 0h100v10h-100z" transform="matrix(10 0 0 10 0 .000002)"/></clipPath><clipPath id="dD"><path d="m0 0h100v10h-100z" transform="matrix(10 0 0 10 0 .000002)"/></clipPath><clipPath id="dE"><path d="m0 0h100v10h-100z" transform="matrix(10 0 0 10 0 .000002)"/></clipPath><clipPath id="dF"><path d="m0 0h100v10h-100z" transform="matrix(10 0 0 10 0 .000002)"/></clipPath><clipPath id="dG"><path d="m0 0h100v10h-100z" transform="matrix(10 0 0 10 0 .000002)"/></clipPath><clipPath id="dH"><path d="m0 0h100v10h-100z" transform="matrix(10 0 0 10 0 .000002)"/></clipPath><clipPath id="dI"><path d="m0 0h100v10h-100z" transform="matrix(10 0 0 10 0 .000002)"/></clipPath><clipPath id="dJ"><path d="m0 0h100v10h-100z" transform="matrix(10 0 0 10 0 .000002)"/></clipPath><clipPath id="dK"><path d="m0 0h100v10h-100z" transform="matrix(10 0 0 10 0 .000002)"/></clipPath><clipPath id="dL"><path d="m0 0h100v10h-100z" transform="matrix(10 0 0 10 0 .000002)"/></clipPath><clipPath id="dM"><path d="m0 0h100v10h-100z" transform="matrix(10 0 0 10 0 .000002)"/></clipPath><clipPath id="dN"><path d="m0 0h100v10h-100z" transform="matrix(10 0 0 10 0 .000002)"/></clipPath><clipPath id="dO"><path d="m0 0h100v10h-100z" transform="matrix(10 0 0 10 0 .000002)"/></clipPath><clipPath id="dP"><path d="m0 0h100v10h-100z" transform="matrix(10 0 0 10 0 .000002)"/></clipPath><clipPath id="dQ"><path d="m0 0h100v10h-100z" transform="matrix(10 0 0 10 0 .000002)"/></clipPath><clipPath id="dR"><path d="m0 0h100v10h-100z" transform="matrix(10 0 0 10 0 .000002)"/></clipPath><clipPath id="dS"><path d="m0 0h100v10h-100z" transform="matrix(10 0 0 10 0 .000002)"/></clipPath><clipPath id="dT"><path d="m0 0h100v10h-100z" transform="matrix(10 0 0 10 0 .000002)"/></clipPath><clipPath id="dU"><path d="m0 0h100v10h-100z" transform="matrix(10 0 0 10 0 .000002)"/></clipPath><clipPath id="dV"><path d="m0 0h100v10h-100z" transform="matrix(10 0 0 10 0 .000002)"/></clipPath><clipPath id="dW"><path d="m0 0h100v10h-100z" transform="matrix(10 0 0 10 0 .000002)"/></clipPath><clipPath id="dX"><path d="m0 0h100v10h-100z" transform="matrix(10 0 0 10 0 .000002)"/></clipPath><clipPath id="dY"><path d="m0 0h100v10h-100z" transform="matrix(10 0 0 10 0 .000002)"/></clipPath><clipPath id="dZ"><path d="m0 0h100v10h-100z" transform="matrix(10 0 0 10 0 .000002)"/></clipPath><clipPath id="d0"><path d="m0 0h100v10h-100z" transform="matrix(10 0 0 10 0 .000002)"/></clipPath><clipPath id="d1"><path d="m0 0h100v10h-100z" transform="matrix(10 0 0 10 0 .000002)"/></clipPath><clipPath id="d2"><path d="m0 0h100v10h-100z" transform="matrix(10 0 0 10 0 .000002)"/></clipPath><clipPath id="d3"><path d="m0 0h100v10h-100z" transform="matrix(10 0 0 10 0 .000002)"/></clipPath><clipPath id="d4"><path d="m0 0h100v10h-100z" transform="matrix(10 0 0 10 0 .000002)"/></clipPath><clipPath id="d5"><path d="m0 0h100v10h-100z" transform="matrix(10 0 0 10 0 .000002)"/></clipPath><clipPath id="d6"><path d="m0 0h100v10h-100z" transform="matrix(10 0 0 10 0 .000002)"/></clipPath><clipPath id="d7"><path d="m0 0h100v10h-100z" transform="matrix(10 0 0 10 0 .000002)"/></clipPath><clipPath id="d8"><path d="m0 0h100v10h-100z" transform="matrix(10 0 0 10 0 .000002)"/></clipPath><clipPath id="d9"><path d="m0 0h100v10h-100z" transform="matrix(10 0 0 10 0 .000002)"/></clipPath><clipPath id="ea"><path d="m0 0h100v10h-100z" transform="matrix(10 0 0 10 0 .000002)"/></clipPath><clipPath id="eb"><path d="m0 0h100v10h-100z" transform="matrix(10 0 0 10 0 .000002)"/></clipPath><clipPath id="ec"><path d="m0 0h100v10h-100z" transform="matrix(10 0 0 10 0 .000002)"/></clipPath><clipPath id="ed"><path d="m0 0h100v10h-100z" transform="matrix(10 0 0 10 0 .000002)"/></clipPath><clipPath id="ee"><path d="m0 0h100v10h-100z" transform="matrix(10 0 0 10 0 .000002)"/></clipPath><clipPath id="ef"><path d="m0 0h100v10h-100z" transform="matrix(10 0 0 10 0 .000002)"/></clipPath><clipPath id="eg"><path d="m0 0h100v10h-100z" transform="matrix(10 0 0 10 0 .000002)"/></clipPath><clipPath id="eh"><path d="m0 0h100v10h-100z" transform="matrix(10 0 0 10 0 .000002)"/></clipPath><clipPath id="ei"><path d="m0 0h100v10h-100z" transform="matrix(10 0 0 10 0 .000002)"/></clipPath><clipPath id="ej"><path d="m0 0h100v10h-100z" transform="matrix(10 0 0 10 0 .000002)"/></clipPath><clipPath id="ek"><path d="m0 0h100v10h-100z" transform="matrix(10 0 0 10 0 .000002)"/></clipPath><clipPath id="el"><path d="m0 0h100v10h-100z" transform="matrix(10 0 0 10 0 .000002)"/></clipPath><clipPath id="em"><path d="m0 0h100v10h-100z" transform="matrix(10 0 0 10 0 .000002)"/></clipPath><clipPath id="en"><path d="m0 0h100v10h-100z" transform="matrix(10 0 0 10 0 .000002)"/></clipPath><clipPath id="eo"><path d="m0 0h100v10h-100z" transform="matrix(10 0 0 10 0 .000002)"/></clipPath><clipPath id="ep"><path d="m0 0h100v10h-100z" transform="matrix(10 0 0 10 0 .000002)"/></clipPath><clipPath id="eq"><path d="m0 0h100v10h-100z" transform="matrix(10 0 0 10 0 .000002)"/></clipPath><clipPath id="er"><path d="m0 0h100v10h-100z" transform="matrix(10 0 0 10 0 .000002)"/></clipPath><clipPath id="es"><path d="m0 0h100v10h-100z" transform="matrix(10 0 0 10 0 .000002)"/></clipPath><clipPath id="et"><path d="m0 0h100v10h-100z" transform="matrix(10 0 0 10 0 .000002)"/></clipPath><clipPath id="eu"><path d="m0 0h100v10h-100z" transform="matrix(10 0 0 10 0 .000002)"/></clipPath><clipPath id="ev"><path d="m0 0h100v10h-100z" transform="matrix(10 0 0 10 0 .000002)"/></clipPath><clipPath id="ew"><path d="m0 0h100v10h-100z" transform="matrix(10 0 0 10 0 .000002)"/></clipPath><clipPath id="ex"><path d="m0 0h996.264v73.022h-996.264z" transform="matrix(1.3333333 0 0 -1.3333333 2.661333 97.333333)"/></clipPath><clipPath id="ey"><path d="m0 0h996.264v73.022h-996.264z" transform="matrix(1 0 0 -1 -277.58601 5.8)"/></clipPath><clipPath id="ez"><path d="m0 0h10v10h-10z" transform="matrix(10 0 0 10 .000025 .000002)"/></clipPath><clipPath id="eA"><path d="m0 0h996.264v73.022h-996.264z" transform="matrix(1.3333333 0 0 -1.3333333 2.661333 97.333333)"/></clipPath><clipPath id="eB"><path d="m0 0h10v10h-10z" transform="matrix(10 0 0 10 0 .000002)"/></clipPath><clipPath id="eC"><path d="m0 0h996.264v73.022h-996.264z" transform="matrix(1.3333333 0 0 -1.3333333 2.661333 97.333333)"/></clipPath><clipPath id="eD"><path d="m0 0h10v10h-10z" transform="matrix(10 0 0 10 0 .000002)"/></clipPath><clipPath id="eE"><path d="m0 0h996.264v73.022h-996.264z" transform="matrix(1.3333333 0 0 -1.3333333 2.661333 97.333333)"/></clipPath><clipPath id="eF"><path d="m0 0h996.264v73.022h-996.264z" transform="translate(0 -.398)"/></clipPath><clipPath id="eG"><path d="m0 0h384v72h-384z" transform="matrix(1.3333333 0 0 -1.3333333 1.328 97.333333)"/></clipPath><g clip-path="url(#eG)"><text clip-path="url(#a)" transform="matrix(1.3333333 0 0 1.3333333 2.661333 11.129333)"><tspan font-family="Nimbus Roman No9 L" font-size="9.9626" font-weight="700" x="0 5.728495 10.709795 16.249001 19.018604 25.932648 30.913948" y="0">Table3.</tspan><tspan font-family="Nimbus Roman No9 L" font-size="9.9626" x="36.493 42.032207 46.455601 51.436901 55.860294 63.611198 68.034592 74.400696 79.381996 86.853943 92.941093 97.922394 102.90369 110.65459 115.07799 121.44409 128.63708 132.81142 140.00441 144.42781 151.34186 154.65939 159.6407 164.62199 169.6033 174.58459 180.39279 187.58578 190.35539 193.125 200.59695 205.57825 210.00165 213.31918 221.07008 223.83969 227.71515 231.59059 234.3602 239.34149 246.81345 251.79475 255.11229 259.53568 264.517 267.28659 271.70999 279.18195 281.95154 289.42349 294.40479 297.17438 301.04984 303.81946 307.13699 309.90659 314.68863 319.66995 322.43954 329.35358 332.1232 339.59515 346.78815 351.21155 356.4718 361.45309 366.43439 371.41568 376.39697" y="0">SchemesbyThomasDewez(2004)withpermissiongrantedtodistributeinOct2018.</tspan></text><path clip-path="url(#b)" d="m0 0h382.271" fill="none" stroke="#000" stroke-miterlimit="10" stroke-width=".797" transform="matrix(1.3333333 0 0 -1.3333333 2.661333 19.098667)"/><text clip-path="url(#c)" transform="matrix(1.3333333 0 0 1.3333333 31.230667 33.574667)"><tspan font-family="Latin Modern Sans" font-size="8.9664" font-weight="700" x="0 5.750152 10.233353 15.542357 67.046257 72.52562 76.909294 81.940346 86.523071 94.29425 165.63182 171.66441 176.37178 178.66269 183.24542 186.86964 190.49385 246.83064 255.59799 260.30536 268.07922 292.87222 319.75708 346.10303" y="0">TypeSchemePaletteMaxnNBF</tspan></text><path clip-path="url(#d)" d="m0 0h382.271" fill="none" stroke="#000" stroke-miterlimit="10" stroke-width=".498" transform="matrix(1.3333333 0 0 -1.3333333 2.661333 40.644)"/><text clip-path="url(#e)" transform="matrix(1.3333333 0 0 1.3333333 10.632 56.74)"><tspan font-family="Nimbus Roman No9 L" font-size="8.9664" x="0 4.985318 8.9664 13.4496 17.9328 21.913881 26.397081 28.88974 31.382401 35.363483 62.979992 69.453735 74.932205 85.144936 89.628136 94.111336 97.599266 100.09193 104.07301" y="0">SequentialDEMposter</tspan></text><g clip-path="url(#a1)"><path clip-path="url(#f)" d="m0 0h15.1992v100h-15.1992z" fill="#026046" transform="matrix(.133344 0 0 -.13333733 205.032 58.026667)"/><path clip-path="url(#g)" d="m10.1016 0h15.1992v100h-15.1992z" fill="#197830" transform="matrix(.133344 0 0 -.13333733 205.032 58.026667)"/><path clip-path="url(#h)" d="m20.1992 0h15.1992v100h-15.1992z" fill="#388435" transform="matrix(.133344 0 0 -.13333733 205.032 58.026667)"/><path clip-path="url(#i)" d="m30.3008 0h15.1992v100h-15.1992z" fill="#518f3d" transform="matrix(.133344 0 0 -.13333733 205.032 58.026667)"/><path clip-path="url(#j)" d="m40.3984 0h15.2031v100h-15.2031z" fill="#679946" transform="matrix(.133344 0 0 -.13333733 205.032 58.026667)"/><path clip-path="url(#k)" d="m50.5 0h15.1992v100h-15.1992z" fill="#7da34d" transform="matrix(.133344 0 0 -.13333733 205.032 58.026667)"/><path clip-path="url(#l)" d="m60.6016 0h15.1992v100h-15.1992z" fill="#93ae57" transform="matrix(.133344 0 0 -.13333733 205.032 58.026667)"/><path clip-path="url(#m)" d="m70.6992 0h15.1992v100h-15.1992z" fill="#a9b85f" transform="matrix(.133344 0 0 -.13333733 205.032 58.026667)"/><path clip-path="url(#n)" d="m80.8008 0h15.1992v100h-15.1992z" fill="#bdc268" transform="matrix(.133344 0 0 -.13333733 205.032 58.026667)"/><path clip-path="url(#o)" d="m90.8984 0h15.2031v100h-15.2031z" fill="#d3cc71" transform="matrix(.133344 0 0 -.13333733 205.032 58.026667)"/><path clip-path="url(#p)" d="m101 0h15.1992v100h-15.1992z" fill="#e8d67a" transform="matrix(.133344 0 0 -.13333733 205.032 58.026667)"/><path clip-path="url(#q)" d="m111.102 0h15.1992v100h-15.1992z" fill="#e4cb71" transform="matrix(.133344 0 0 -.13333733 205.032 58.026667)"/><path clip-path="url(#r)" d="m121.199 0h15.1992v100h-15.1992z" fill="#e0c169" transform="matrix(.133344 0 0 -.13333733 205.032 58.026667)"/><path clip-path="url(#s)" d="m131.301 0h15.1992v100h-15.1992z" fill="#dbb760" transform="matrix(.133344 0 0 -.13333733 205.032 58.026667)"/><path clip-path="url(#t)" d="m141.398 0h15.2031v100h-15.2031z" fill="#d7ac57" transform="matrix(.133344 0 0 -.13333733 205.032 58.026667)"/><path clip-path="url(#u)" d="m151.5 0h15.1992v100h-15.1992z" fill="#d2a14f" transform="matrix(.133344 0 0 -.13333733 205.032 58.026667)"/><path clip-path="url(#v)" d="m161.602 0h15.1992v100h-15.1992z" fill="#cd9746" transform="matrix(.133344 0 0 -.13333733 205.032 58.026667)"/><path clip-path="url(#w)" d="m171.699 0h15.1992v100h-15.1992z" fill="#c78c3d" transform="matrix(.133344 0 0 -.13333733 205.032 58.026667)"/><path clip-path="url(#x)" d="m181.801 0h15.1992v100h-15.1992z" fill="#c28235" transform="matrix(.133344 0 0 -.13333733 205.032 58.026667)"/><path clip-path="url(#y)" d="m191.898 0h15.2031v100h-15.2031z" fill="#be782d" transform="matrix(.133344 0 0 -.13333733 205.032 58.026667)"/><path clip-path="url(#z)" d="m202 0h15.1992v100h-15.1992z" fill="#b86d24" transform="matrix(.133344 0 0 -.13333733 205.032 58.026667)"/><path clip-path="url(#A)" d="m212.102 0h15.1992v100h-15.1992z" fill="#b2631b" transform="matrix(.133344 0 0 -.13333733 205.032 58.026667)"/><path clip-path="url(#B)" d="m222.199 0h15.1992v100h-15.1992z" fill="#ac5812" transform="matrix(.133344 0 0 -.13333733 205.032 58.026667)"/><path clip-path="url(#C)" d="m232.301 0h15.1992v100h-15.1992z" fill="#a64d05" transform="matrix(.133344 0 0 -.13333733 205.032 58.026667)"/><path clip-path="url(#D)" d="m242.398 0h15.2031v100h-15.2031z" fill="#a14300" transform="matrix(.133344 0 0 -.13333733 205.032 58.026667)"/><path clip-path="url(#E)" d="m252.5 0h15.1992v100h-15.1992z" fill="#a03f00" transform="matrix(.133344 0 0 -.13333733 205.032 58.026667)"/><path clip-path="url(#F)" d="m262.602 0h15.1992v100h-15.1992z" fill="#a13b00" transform="matrix(.133344 0 0 -.13333733 205.032 58.026667)"/><path clip-path="url(#G)" d="m272.699 0h15.1992v100h-15.1992z" fill="#9f3700" transform="matrix(.133344 0 0 -.13333733 205.032 58.026667)"/><path clip-path="url(#H)" d="m282.801 0h15.1992v100h-15.1992z" fill="#9f3200" transform="matrix(.133344 0 0 -.13333733 205.032 58.026667)"/><path clip-path="url(#I)" d="m292.898 0h15.2031v100h-15.2031z" fill="#9f2d00" transform="matrix(.133344 0 0 -.13333733 205.032 58.026667)"/><path clip-path="url(#J)" d="m303 0h15.1992v100h-15.1992z" fill="#9f2700" transform="matrix(.133344 0 0 -.13333733 205.032 58.026667)"/><path clip-path="url(#K)" d="m313.102 0h15.1992v100h-15.1992z" fill="#9f1f00" transform="matrix(.133344 0 0 -.13333733 205.032 58.026667)"/><path clip-path="url(#L)" d="m323.199 0h15.1992v100h-15.1992z" fill="#9f1a00" transform="matrix(.133344 0 0 -.13333733 205.032 58.026667)"/><path clip-path="url(#M)" d="m333.301 0h15.1992v100h-15.1992z" fill="#9e1100" transform="matrix(.133344 0 0 -.13333733 205.032 58.026667)"/><path clip-path="url(#N)" d="m343.398 0h15.2031v100h-15.2031z" fill="#9e0000" transform="matrix(.133344 0 0 -.13333733 205.032 58.026667)"/><path clip-path="url(#O)" d="m353.5 0h15.1992v100h-15.1992z" fill="#9d1206" transform="matrix(.133344 0 0 -.13333733 205.032 58.026667)"/><path clip-path="url(#P)" d="m363.602 0h15.1992v100h-15.1992z" fill="#9c1b0c" transform="matrix(.133344 0 0 -.13333733 205.032 58.026667)"/><path clip-path="url(#Q)" d="m373.699 0h15.1992v100h-15.1992z" fill="#9a2112" transform="matrix(.133344 0 0 -.13333733 205.032 58.026667)"/><path clip-path="url(#R)" d="m383.801 0h15.1992v100h-15.1992z" fill="#9a2916" transform="matrix(.133344 0 0 -.13333733 205.032 58.026667)"/><path clip-path="url(#S)" d="m393.898 0h15.2031v100h-15.2031z" fill="#982f1c" transform="matrix(.133344 0 0 -.13333733 205.032 58.026667)"/><path clip-path="url(#T)" d="m404 0h15.1992v100h-15.1992z" fill="#97341f" transform="matrix(.133344 0 0 -.13333733 205.032 58.026667)"/><path clip-path="url(#U)" d="m414.102 0h15.1992v100h-15.1992z" fill="#953825" transform="matrix(.133344 0 0 -.13333733 205.032 58.026667)"/><path clip-path="url(#V)" d="m424.199 0h15.1992v100h-15.1992z" fill="#943c2a" transform="matrix(.133344 0 0 -.13333733 205.032 58.026667)"/><path clip-path="url(#W)" d="m434.301 0h15.1992v100h-15.1992z" fill="#92402e" transform="matrix(.133344 0 0 -.13333733 205.032 58.026667)"/><path clip-path="url(#X)" d="m444.398 0h15.2031v100h-15.2031z" fill="#904534" transform="matrix(.133344 0 0 -.13333733 205.032 58.026667)"/><path clip-path="url(#Y)" d="m454.5 0h15.1992v100h-15.1992z" fill="#8f4938" transform="matrix(.133344 0 0 -.13333733 205.032 58.026667)"/><path clip-path="url(#Z)" d="m464.602 0h15.1992v100h-15.1992z" fill="#8c4c3d" transform="matrix(.133344 0 0 -.13333733 205.032 58.026667)"/><path clip-path="url(#aa)" d="m474.699 0h15.1992v100h-15.1992z" fill="#8b5041" transform="matrix(.133344 0 0 -.13333733 205.032 58.026667)"/><path clip-path="url(#ab)" d="m484.801 0h15.1992v100h-15.1992z" fill="#885346" transform="matrix(.133344 0 0 -.13333733 205.032 58.026667)"/><path clip-path="url(#ac)" d="m494.898 0h15.2031v100h-15.2031z" fill="#86574c" transform="matrix(.133344 0 0 -.13333733 205.032 58.026667)"/><path clip-path="url(#ad)" d="m505.102 0h15.1992v100h-15.1992z" fill="#845a50" transform="matrix(.133344 0 0 -.13333733 205.032 58.026667)"/><path clip-path="url(#ae)" d="m515.199 0h15.1992v100h-15.1992z" fill="#805e55" transform="matrix(.133344 0 0 -.13333733 205.032 58.026667)"/><path clip-path="url(#af)" d="m525.301 0h15.1992v100h-15.1992z" fill="#7d615a" transform="matrix(.133344 0 0 -.13333733 205.032 58.026667)"/><path clip-path="url(#ag)" d="m535.398 0h15.2031v100h-15.2031z" fill="#7a645e" transform="matrix(.133344 0 0 -.13333733 205.032 58.026667)"/><path clip-path="url(#ah)" d="m545.5 0h15.1992v100h-15.1992z" fill="#776763" transform="matrix(.133344 0 0 -.13333733 205.032 58.026667)"/><path clip-path="url(#ai)" d="m555.602 0h15.1992v100h-15.1992z" fill="#726a69" transform="matrix(.133344 0 0 -.13333733 205.032 58.026667)"/><path clip-path="url(#aj)" d="m565.699 0h15.1992v100h-15.1992z" fill="#6e6e6e" transform="matrix(.133344 0 0 -.13333733 205.032 58.026667)"/><path clip-path="url(#ak)" d="m575.801 0h15.1992v100h-15.1992z" fill="#737373" transform="matrix(.133344 0 0 -.13333733 205.032 58.026667)"/><path clip-path="url(#al)" d="m585.898 0h15.2031v100h-15.2031z" fill="#787878" transform="matrix(.133344 0 0 -.13333733 205.032 58.026667)"/><path clip-path="url(#am)" d="m596 0h15.1992v100h-15.1992z" fill="#7e7e7e" transform="matrix(.133344 0 0 -.13333733 205.032 58.026667)"/><path clip-path="url(#an)" d="m606.102 0h15.1992v100h-15.1992z" fill="#848484" transform="matrix(.133344 0 0 -.13333733 205.032 58.026667)"/><path clip-path="url(#ao)" d="m616.199 0h15.1992v100h-15.1992z" fill="#8a8a8a" transform="matrix(.133344 0 0 -.13333733 205.032 58.026667)"/><path clip-path="url(#ap)" d="m626.301 0h15.1992v100h-15.1992z" fill="#909090" transform="matrix(.133344 0 0 -.13333733 205.032 58.026667)"/><path clip-path="url(#aq)" d="m636.398 0h15.2031v100h-15.2031z" fill="#959595" transform="matrix(.133344 0 0 -.13333733 205.032 58.026667)"/><path clip-path="url(#ar)" d="m646.5 0h15.1992v100h-15.1992z" fill="#9b9b9b" transform="matrix(.133344 0 0 -.13333733 205.032 58.026667)"/><path clip-path="url(#as)" d="m656.602 0h15.1992v100h-15.1992z" fill="#a1a1a1" transform="matrix(.133344 0 0 -.13333733 205.032 58.026667)"/><path clip-path="url(#at)" d="m666.699 0h15.1992v100h-15.1992z" fill="#a8a8a8" transform="matrix(.133344 0 0 -.13333733 205.032 58.026667)"/><path clip-path="url(#au)" d="m676.801 0h15.1992v100h-15.1992z" fill="#adadad" transform="matrix(.133344 0 0 -.13333733 205.032 58.026667)"/><path clip-path="url(#av)" d="m686.898 0h15.2031v100h-15.2031z" fill="#b3b3b3" transform="matrix(.133344 0 0 -.13333733 205.032 58.026667)"/><path clip-path="url(#aw)" d="m697 0h15.1992v100h-15.1992z" fill="#b9b9b9" transform="matrix(.133344 0 0 -.13333733 205.032 58.026667)"/><path clip-path="url(#ax)" d="m707.102 0h15.1992v100h-15.1992z" fill="#bfbfbf" transform="matrix(.133344 0 0 -.13333733 205.032 58.026667)"/><path clip-path="url(#ay)" d="m717.199 0h15.1992v100h-15.1992z" fill="#c6c6c6" transform="matrix(.133344 0 0 -.13333733 205.032 58.026667)"/><path clip-path="url(#az)" d="m727.301 0h15.1992v100h-15.1992z" fill="#ccc" transform="matrix(.133344 0 0 -.13333733 205.032 58.026667)"/><path clip-path="url(#aA)" d="m737.398 0h15.2031v100h-15.2031z" fill="#d2d2d2" transform="matrix(.133344 0 0 -.13333733 205.032 58.026667)"/><path clip-path="url(#aB)" d="m747.5 0h15.1992v100h-15.1992z" fill="#d8d8d8" transform="matrix(.133344 0 0 -.13333733 205.032 58.026667)"/><path clip-path="url(#aC)" d="m757.602 0h15.1992v100h-15.1992z" fill="#dfdfdf" transform="matrix(.133344 0 0 -.13333733 205.032 58.026667)"/><path clip-path="url(#aD)" d="m767.699 0h15.1992v100h-15.1992z" fill="#e4e4e4" transform="matrix(.133344 0 0 -.13333733 205.032 58.026667)"/><path clip-path="url(#aE)" d="m777.801 0h15.1992v100h-15.1992z" fill="#ebebeb" transform="matrix(.133344 0 0 -.13333733 205.032 58.026667)"/><path clip-path="url(#aF)" d="m787.898 0h15.2031v100h-15.2031z" fill="#f2f2f2" transform="matrix(.133344 0 0 -.13333733 205.032 58.026667)"/><path clip-path="url(#aG)" d="m798 0h15.1992v100h-15.1992z" fill="#f8f8f8" transform="matrix(.133344 0 0 -.13333733 205.032 58.026667)"/><path clip-path="url(#aH)" d="m808.102 0h15.1992v100h-15.1992z" fill="#fefefe" transform="matrix(.133344 0 0 -.13333733 205.032 58.026667)"/><g fill="#fff"><path clip-path="url(#aI)" d="m818.199 0h15.1992v100h-15.1992z" transform="matrix(.133344 0 0 -.13333733 205.032 58.026667)"/><path clip-path="url(#aJ)" d="m828.301 0h15.1992v100h-15.1992z" transform="matrix(.133344 0 0 -.13333733 205.032 58.026667)"/><path clip-path="url(#aK)" d="m838.398 0h15.2031v100h-15.2031z" transform="matrix(.133344 0 0 -.13333733 205.032 58.026667)"/><path clip-path="url(#aL)" d="m848.5 0h15.1992v100h-15.1992z" transform="matrix(.133344 0 0 -.13333733 205.032 58.026667)"/><path clip-path="url(#aM)" d="m858.602 0h15.1992v100h-15.1992z" transform="matrix(.133344 0 0 -.13333733 205.032 58.026667)"/><path clip-path="url(#aN)" d="m868.699 0h15.1992v100h-15.1992z" transform="matrix(.133344 0 0 -.13333733 205.032 58.026667)"/><path clip-path="url(#aO)" d="m878.801 0h15.1992v100h-15.1992z" transform="matrix(.133344 0 0 -.13333733 205.032 58.026667)"/><path clip-path="url(#aP)" d="m888.898 0h15.2031v100h-15.2031z" transform="matrix(.133344 0 0 -.13333733 205.032 58.026667)"/><path clip-path="url(#aQ)" d="m899 0h15.1992v100h-15.1992z" transform="matrix(.133344 0 0 -.13333733 205.032 58.026667)"/><path clip-path="url(#aR)" d="m909.102 0h15.1992v100h-15.1992z" transform="matrix(.133344 0 0 -.13333733 205.032 58.026667)"/><path clip-path="url(#aS)" d="m919.199 0h15.1992v100h-15.1992z" transform="matrix(.133344 0 0 -.13333733 205.032 58.026667)"/><path clip-path="url(#aT)" d="m929.301 0h15.1992v100h-15.1992z" transform="matrix(.133344 0 0 -.13333733 205.032 58.026667)"/><path clip-path="url(#aU)" d="m939.398 0h15.2031v100h-15.2031z" transform="matrix(.133344 0 0 -.13333733 205.032 58.026667)"/><path clip-path="url(#aV)" d="m949.5 0h15.1992v100h-15.1992z" transform="matrix(.133344 0 0 -.13333733 205.032 58.026667)"/><path clip-path="url(#aW)" d="m959.602 0h15.1992v100h-15.1992z" transform="matrix(.133344 0 0 -.13333733 205.032 58.026667)"/><path clip-path="url(#aX)" d="m969.699 0h15.1992v100h-15.1992z" transform="matrix(.133344 0 0 -.13333733 205.032 58.026667)"/><path clip-path="url(#aY)" d="m979.801 0h15.1992v100h-15.1992z" transform="matrix(.133344 0 0 -.13333733 205.032 58.026667)"/><path clip-path="url(#aZ)" d="m989.898 0h10.1016v100h-10.1016z" transform="matrix(.133344 0 0 -.13333733 205.032 58.026667)"/></g><path d="m0 0h1000v100h-1000z" style="fill:none;stroke:#d3d3d3;stroke-width:1.9;stroke-linecap:round;stroke-linejoin:round;stroke-miterlimit:10;clip-path:url(#a0)" transform="matrix(.133344 0 0 -.13333733 205.032 58.026667)"/></g><text clip-path="url(#a2)" transform="matrix(1.3333333 0 0 1.3333333 372.776 56.74)"><tspan font-family="Standard Symbols L" font-size="8.9664" x="0" y="0">∞</tspan></text><g clip-path="url(#a4)"><path d="m0 0h100v100h-100z" style="fill:#9cf;stroke:#d3d3d3;stroke-width:1.9;stroke-linecap:round;stroke-linejoin:round;stroke-miterlimit:10;clip-path:url(#a3)" transform="matrix(.13333733 0 0 -.13333733 418.98933 58.026667)"/></g><g clip-path="url(#a6)"><path d="m0 0h100v100h-100z" style="fill:#9cf;stroke:#d3d3d3;stroke-width:1.9;stroke-linecap:round;stroke-linejoin:round;stroke-miterlimit:10;clip-path:url(#a5)" transform="matrix(.13333733 0 0 -.13333733 454.472 58.026667)"/></g><g clip-path="url(#a8)"><path d="m0 0h100v100h-100z" style="fill:#9cf;stroke:#d3d3d3;stroke-width:1.9;stroke-linecap:round;stroke-linejoin:round;stroke-miterlimit:10;clip-path:url(#a7)" transform="matrix(.13333733 0 0 -.13333733 488.86 58.026667)"/></g><text clip-path="url(#a9)" transform="matrix(1.3333333 0 0 1.3333333 94.602667 73.169333)"><tspan font-family="Nimbus Roman No9 L" font-size="8.9664" x="0 6.473741 11.952211 22.16494 26.64814 29.633951 32.12661 36.60981" y="0">DEMprint</tspan></text><g clip-path="url(#cM)"><path clip-path="url(#ba)" d="m0 0h15.1992v100h-15.1992z" fill="#356600" transform="matrix(.133344 0 0 -.13333733 205.032 74.457333)"/><path clip-path="url(#bb)" d="m10.1016 0h15.1992v100h-15.1992z" fill="#3b6d00" transform="matrix(.133344 0 0 -.13333733 205.032 74.457333)"/><path clip-path="url(#bc)" d="m20.1992 0h15.1992v100h-15.1992z" fill="#407400" transform="matrix(.133344 0 0 -.13333733 205.032 74.457333)"/><path clip-path="url(#bd)" d="m30.3008 0h15.1992v100h-15.1992z" fill="#467b00" transform="matrix(.133344 0 0 -.13333733 205.032 74.457333)"/><path clip-path="url(#be)" d="m40.3984 0h15.2031v100h-15.2031z" fill="#4c8300" transform="matrix(.133344 0 0 -.13333733 205.032 74.457333)"/><path clip-path="url(#bf)" d="m50.5 0h15.1992v100h-15.1992z" fill="#528a00" transform="matrix(.133344 0 0 -.13333733 205.032 74.457333)"/><path clip-path="url(#bg)" d="m60.6016 0h15.1992v100h-15.1992z" fill="#599202" transform="matrix(.133344 0 0 -.13333733 205.032 74.457333)"/><path clip-path="url(#bh)" d="m70.6992 0h15.1992v100h-15.1992z" fill="#5f9905" transform="matrix(.133344 0 0 -.13333733 205.032 74.457333)"/><path clip-path="url(#bi)" d="m80.8008 0h15.1992v100h-15.1992z" fill="#66a109" transform="matrix(.133344 0 0 -.13333733 205.032 74.457333)"/><path clip-path="url(#bj)" d="m90.8984 0h15.2031v100h-15.2031z" fill="#6ca80b" transform="matrix(.133344 0 0 -.13333733 205.032 74.457333)"/><path clip-path="url(#bk)" d="m101 0h15.1992v100h-15.1992z" fill="#72b00c" transform="matrix(.133344 0 0 -.13333733 205.032 74.457333)"/><path clip-path="url(#bl)" d="m111.102 0h15.1992v100h-15.1992z" fill="#79b90e" transform="matrix(.133344 0 0 -.13333733 205.032 74.457333)"/><path clip-path="url(#bm)" d="m121.199 0h15.1992v100h-15.1992z" fill="#80c210" transform="matrix(.133344 0 0 -.13333733 205.032 74.457333)"/><path clip-path="url(#bn)" d="m131.301 0h15.1992v100h-15.1992z" fill="#8ac627" transform="matrix(.133344 0 0 -.13333733 205.032 74.457333)"/><path clip-path="url(#bo)" d="m141.398 0h15.2031v100h-15.2031z" fill="#95cb39" transform="matrix(.133344 0 0 -.13333733 205.032 74.457333)"/><path clip-path="url(#bp)" d="m151.5 0h15.1992v100h-15.1992z" fill="#a0d04a" transform="matrix(.133344 0 0 -.13333733 205.032 74.457333)"/><path clip-path="url(#bq)" d="m161.602 0h15.1992v100h-15.1992z" fill="#aad558" transform="matrix(.133344 0 0 -.13333733 205.032 74.457333)"/><path clip-path="url(#br)" d="m171.699 0h15.1992v100h-15.1992z" fill="#b5da67" transform="matrix(.133344 0 0 -.13333733 205.032 74.457333)"/><path clip-path="url(#bs)" d="m181.801 0h15.1992v100h-15.1992z" fill="#bfdf75" transform="matrix(.133344 0 0 -.13333733 205.032 74.457333)"/><path clip-path="url(#bt)" d="m191.898 0h15.2031v100h-15.2031z" fill="#c9e482" transform="matrix(.133344 0 0 -.13333733 205.032 74.457333)"/><path clip-path="url(#bu)" d="m202 0h15.1992v100h-15.1992z" fill="#d3e88f" transform="matrix(.133344 0 0 -.13333733 205.032 74.457333)"/><path clip-path="url(#bv)" d="m212.102 0h15.1992v100h-15.1992z" fill="#dded9c" transform="matrix(.133344 0 0 -.13333733 205.032 74.457333)"/><path clip-path="url(#bw)" d="m222.199 0h15.1992v100h-15.1992z" fill="#e7f3a9" transform="matrix(.133344 0 0 -.13333733 205.032 74.457333)"/><path clip-path="url(#bx)" d="m232.301 0h15.1992v100h-15.1992z" fill="#f0f7b7" transform="matrix(.133344 0 0 -.13333733 205.032 74.457333)"/><path clip-path="url(#by)" d="m242.398 0h15.2031v100h-15.2031z" fill="#f9fcc4" transform="matrix(.133344 0 0 -.13333733 205.032 74.457333)"/><path clip-path="url(#bz)" d="m252.5 0h15.1992v100h-15.1992z" fill="#fffdc8" transform="matrix(.133344 0 0 -.13333733 205.032 74.457333)"/><path clip-path="url(#bA)" d="m262.602 0h15.1992v100h-15.1992z" fill="#fffac3" transform="matrix(.133344 0 0 -.13333733 205.032 74.457333)"/><path clip-path="url(#bB)" d="m272.699 0h15.1992v100h-15.1992z" fill="#fff8bd" transform="matrix(.133344 0 0 -.13333733 205.032 74.457333)"/><path clip-path="url(#bC)" d="m282.801 0h15.1992v100h-15.1992z" fill="#fff5b7" transform="matrix(.133344 0 0 -.13333733 205.032 74.457333)"/><path clip-path="url(#bD)" d="m292.898 0h15.2031v100h-15.2031z" fill="#fff2b2" transform="matrix(.133344 0 0 -.13333733 205.032 74.457333)"/><path clip-path="url(#bE)" d="m303 0h15.1992v100h-15.1992z" fill="#fff0ac" transform="matrix(.133344 0 0 -.13333733 205.032 74.457333)"/><path clip-path="url(#bF)" d="m313.102 0h15.1992v100h-15.1992z" fill="#ffeda7" transform="matrix(.133344 0 0 -.13333733 205.032 74.457333)"/><path clip-path="url(#bG)" d="m323.199 0h15.1992v100h-15.1992z" fill="#ffeaa1" transform="matrix(.133344 0 0 -.13333733 205.032 74.457333)"/><path clip-path="url(#bH)" d="m333.301 0h15.1992v100h-15.1992z" fill="#ffe79b" transform="matrix(.133344 0 0 -.13333733 205.032 74.457333)"/><path clip-path="url(#bI)" d="m343.398 0h15.2031v100h-15.2031z" fill="#ffe496" transform="matrix(.133344 0 0 -.13333733 205.032 74.457333)"/><path clip-path="url(#bJ)" d="m353.5 0h15.1992v100h-15.1992z" fill="#ffe291" transform="matrix(.133344 0 0 -.13333733 205.032 74.457333)"/><path clip-path="url(#bK)" d="m363.602 0h15.1992v100h-15.1992z" fill="#fedf8c" transform="matrix(.133344 0 0 -.13333733 205.032 74.457333)"/><path clip-path="url(#bL)" d="m373.699 0h15.1992v100h-15.1992z" fill="#fddd86" transform="matrix(.133344 0 0 -.13333733 205.032 74.457333)"/><path clip-path="url(#bM)" d="m383.801 0h15.1992v100h-15.1992z" fill="#fcda81" transform="matrix(.133344 0 0 -.13333733 205.032 74.457333)"/><path clip-path="url(#bN)" d="m393.898 0h15.2031v100h-15.2031z" fill="#fdd77b" transform="matrix(.133344 0 0 -.13333733 205.032 74.457333)"/><path clip-path="url(#bO)" d="m404 0h15.1992v100h-15.1992z" fill="#fcd575" transform="matrix(.133344 0 0 -.13333733 205.032 74.457333)"/><path clip-path="url(#bP)" d="m414.102 0h15.1992v100h-15.1992z" fill="#fbd170" transform="matrix(.133344 0 0 -.13333733 205.032 74.457333)"/><path clip-path="url(#bQ)" d="m424.199 0h15.1992v100h-15.1992z" fill="#facf6a" transform="matrix(.133344 0 0 -.13333733 205.032 74.457333)"/><path clip-path="url(#bR)" d="m434.301 0h15.1992v100h-15.1992z" fill="#f9cc65" transform="matrix(.133344 0 0 -.13333733 205.032 74.457333)"/><path clip-path="url(#bS)" d="m444.398 0h15.2031v100h-15.2031z" fill="#f9c95e" transform="matrix(.133344 0 0 -.13333733 205.032 74.457333)"/><path clip-path="url(#bT)" d="m454.5 0h15.1992v100h-15.1992z" fill="#f8c759" transform="matrix(.133344 0 0 -.13333733 205.032 74.457333)"/><path clip-path="url(#bU)" d="m464.602 0h15.1992v100h-15.1992z" fill="#f7c453" transform="matrix(.133344 0 0 -.13333733 205.032 74.457333)"/><path clip-path="url(#bV)" d="m474.699 0h15.1992v100h-15.1992z" fill="#f7c24e" transform="matrix(.133344 0 0 -.13333733 205.032 74.457333)"/><path clip-path="url(#bW)" d="m484.801 0h15.1992v100h-15.1992z" fill="#f6bf48" transform="matrix(.133344 0 0 -.13333733 205.032 74.457333)"/><path clip-path="url(#bX)" d="m494.898 0h15.2031v100h-15.2031z" fill="#f4bd41" transform="matrix(.133344 0 0 -.13333733 205.032 74.457333)"/><path clip-path="url(#bY)" d="m505.102 0h15.1992v100h-15.1992z" fill="#e9b13b" transform="matrix(.133344 0 0 -.13333733 205.032 74.457333)"/><path clip-path="url(#bZ)" d="m515.199 0h15.1992v100h-15.1992z" fill="#dda537" transform="matrix(.133344 0 0 -.13333733 205.032 74.457333)"/><path clip-path="url(#b0)" d="m525.301 0h15.1992v100h-15.1992z" fill="#cf9932" transform="matrix(.133344 0 0 -.13333733 205.032 74.457333)"/><path clip-path="url(#b1)" d="m535.398 0h15.2031v100h-15.2031z" fill="#c48d2e" transform="matrix(.133344 0 0 -.13333733 205.032 74.457333)"/><path clip-path="url(#b2)" d="m545.5 0h15.1992v100h-15.1992z" fill="#b8822a" transform="matrix(.133344 0 0 -.13333733 205.032 74.457333)"/><path clip-path="url(#b3)" d="m555.602 0h15.1992v100h-15.1992z" fill="#ac7625" transform="matrix(.133344 0 0 -.13333733 205.032 74.457333)"/><path clip-path="url(#b4)" d="m565.699 0h15.1992v100h-15.1992z" fill="#a16b1f" transform="matrix(.133344 0 0 -.13333733 205.032 74.457333)"/><path clip-path="url(#b5)" d="m575.801 0h15.1992v100h-15.1992z" fill="#95601c" transform="matrix(.133344 0 0 -.13333733 205.032 74.457333)"/><path clip-path="url(#b6)" d="m585.898 0h15.2031v100h-15.2031z" fill="#895517" transform="matrix(.133344 0 0 -.13333733 205.032 74.457333)"/><path clip-path="url(#b7)" d="m596 0h15.1992v100h-15.1992z" fill="#7f4a14" transform="matrix(.133344 0 0 -.13333733 205.032 74.457333)"/><path clip-path="url(#b8)" d="m606.102 0h15.1992v100h-15.1992z" fill="#733f10" transform="matrix(.133344 0 0 -.13333733 205.032 74.457333)"/><path clip-path="url(#b9)" d="m616.199 0h15.1992v100h-15.1992z" fill="#68360c" transform="matrix(.133344 0 0 -.13333733 205.032 74.457333)"/><path clip-path="url(#ca)" d="m626.301 0h15.1992v100h-15.1992z" fill="#66340b" transform="matrix(.133344 0 0 -.13333733 205.032 74.457333)"/><path clip-path="url(#cb)" d="m636.398 0h15.2031v100h-15.2031z" fill="#66340a" transform="matrix(.133344 0 0 -.13333733 205.032 74.457333)"/><path clip-path="url(#cc)" d="m646.5 0h15.1992v100h-15.1992z" fill="#663409" transform="matrix(.133344 0 0 -.13333733 205.032 74.457333)"/><path clip-path="url(#cd)" d="m656.602 0h15.1992v100h-15.1992z" fill="#663408" transform="matrix(.133344 0 0 -.13333733 205.032 74.457333)"/><path clip-path="url(#ce)" d="m666.699 0h15.1992v100h-15.1992z" fill="#663405" transform="matrix(.133344 0 0 -.13333733 205.032 74.457333)"/><path clip-path="url(#cf)" d="m676.801 0h15.1992v100h-15.1992z" fill="#663405" transform="matrix(.133344 0 0 -.13333733 205.032 74.457333)"/><path clip-path="url(#cg)" d="m686.898 0h15.2031v100h-15.2031z" fill="#663404" transform="matrix(.133344 0 0 -.13333733 205.032 74.457333)"/><path clip-path="url(#ch)" d="m697 0h15.1992v100h-15.1992z" fill="#663403" transform="matrix(.133344 0 0 -.13333733 205.032 74.457333)"/><path clip-path="url(#ci)" d="m707.102 0h15.1992v100h-15.1992z" fill="#663402" transform="matrix(.133344 0 0 -.13333733 205.032 74.457333)"/><g fill="#663400"><path clip-path="url(#cj)" d="m717.199 0h15.1992v100h-15.1992z" transform="matrix(.133344 0 0 -.13333733 205.032 74.457333)"/><path clip-path="url(#ck)" d="m727.301 0h15.1992v100h-15.1992z" transform="matrix(.133344 0 0 -.13333733 205.032 74.457333)"/><path clip-path="url(#cl)" d="m737.398 0h15.2031v100h-15.2031z" transform="matrix(.133344 0 0 -.13333733 205.032 74.457333)"/></g><path clip-path="url(#cm)" d="m747.5 0h15.1992v100h-15.1992z" fill="#693704" transform="matrix(.133344 0 0 -.13333733 205.032 74.457333)"/><path clip-path="url(#cn)" d="m757.602 0h15.1992v100h-15.1992z" fill="#703e10" transform="matrix(.133344 0 0 -.13333733 205.032 74.457333)"/><path clip-path="url(#co)" d="m767.699 0h15.1992v100h-15.1992z" fill="#764519" transform="matrix(.133344 0 0 -.13333733 205.032 74.457333)"/><path clip-path="url(#cp)" d="m777.801 0h15.1992v100h-15.1992z" fill="#7f4c23" transform="matrix(.133344 0 0 -.13333733 205.032 74.457333)"/><path clip-path="url(#cq)" d="m787.898 0h15.2031v100h-15.2031z" fill="#86542c" transform="matrix(.133344 0 0 -.13333733 205.032 74.457333)"/><path clip-path="url(#cr)" d="m798 0h15.1992v100h-15.1992z" fill="#8b5c36" transform="matrix(.133344 0 0 -.13333733 205.032 74.457333)"/><path clip-path="url(#cs)" d="m808.102 0h15.1992v100h-15.1992z" fill="#92643f" transform="matrix(.133344 0 0 -.13333733 205.032 74.457333)"/><path clip-path="url(#ct)" d="m818.199 0h15.1992v100h-15.1992z" fill="#996b48" transform="matrix(.133344 0 0 -.13333733 205.032 74.457333)"/><path clip-path="url(#cu)" d="m828.301 0h15.1992v100h-15.1992z" fill="#a07452" transform="matrix(.133344 0 0 -.13333733 205.032 74.457333)"/><path clip-path="url(#cv)" d="m838.398 0h15.2031v100h-15.2031z" fill="#a67c5c" transform="matrix(.133344 0 0 -.13333733 205.032 74.457333)"/><path clip-path="url(#cw)" d="m848.5 0h15.1992v100h-15.1992z" fill="#ac8466" transform="matrix(.133344 0 0 -.13333733 205.032 74.457333)"/><path clip-path="url(#cx)" d="m858.602 0h15.1992v100h-15.1992z" fill="#b28c70" transform="matrix(.133344 0 0 -.13333733 205.032 74.457333)"/><path clip-path="url(#cy)" d="m868.699 0h15.1992v100h-15.1992z" fill="#b8947a" transform="matrix(.133344 0 0 -.13333733 205.032 74.457333)"/><path clip-path="url(#cz)" d="m878.801 0h15.1992v100h-15.1992z" fill="#be9d85" transform="matrix(.133344 0 0 -.13333733 205.032 74.457333)"/><path clip-path="url(#cA)" d="m888.898 0h15.2031v100h-15.2031z" fill="#c5a690" transform="matrix(.133344 0 0 -.13333733 205.032 74.457333)"/><path clip-path="url(#cB)" d="m899 0h15.1992v100h-15.1992z" fill="#cbae9a" transform="matrix(.133344 0 0 -.13333733 205.032 74.457333)"/><path clip-path="url(#cC)" d="m909.102 0h15.1992v100h-15.1992z" fill="#d0b7a6" transform="matrix(.133344 0 0 -.13333733 205.032 74.457333)"/><path clip-path="url(#cD)" d="m919.199 0h15.1992v100h-15.1992z" fill="#d6c0b0" transform="matrix(.133344 0 0 -.13333733 205.032 74.457333)"/><path clip-path="url(#cE)" d="m929.301 0h15.1992v100h-15.1992z" fill="#dcc8bb" transform="matrix(.133344 0 0 -.13333733 205.032 74.457333)"/><path clip-path="url(#cF)" d="m939.398 0h15.2031v100h-15.2031z" fill="#e3d2c6" transform="matrix(.133344 0 0 -.13333733 205.032 74.457333)"/><path clip-path="url(#cG)" d="m949.5 0h15.1992v100h-15.1992z" fill="#e8dad1" transform="matrix(.133344 0 0 -.13333733 205.032 74.457333)"/><path clip-path="url(#cH)" d="m959.602 0h15.1992v100h-15.1992z" fill="#eee3dc" transform="matrix(.133344 0 0 -.13333733 205.032 74.457333)"/><path clip-path="url(#cI)" d="m969.699 0h15.1992v100h-15.1992z" fill="#f3ece8" transform="matrix(.133344 0 0 -.13333733 205.032 74.457333)"/><path clip-path="url(#cJ)" d="m979.801 0h15.1992v100h-15.1992z" fill="#f9f5f3" transform="matrix(.133344 0 0 -.13333733 205.032 74.457333)"/><path clip-path="url(#cK)" d="m989.898 0h10.1016v100h-10.1016z" fill="#fff" transform="matrix(.133344 0 0 -.13333733 205.032 74.457333)"/><path d="m0 0h1000v100h-1000z" style="fill:none;stroke:#d3d3d3;stroke-width:1.9;stroke-linecap:round;stroke-linejoin:round;stroke-miterlimit:10;clip-path:url(#cL)" transform="matrix(.133344 0 0 -.13333733 205.032 74.457333)"/></g><text clip-path="url(#cN)" transform="matrix(1.3333333 0 0 1.3333333 372.776 73.169333)"><tspan font-family="Standard Symbols L" font-size="8.9664" x="0" y="0">∞</tspan></text><g clip-path="url(#cP)"><path d="m0 0h100v100h-100z" style="fill:#356600;stroke:#d3d3d3;stroke-width:1.9;stroke-linecap:round;stroke-linejoin:round;stroke-miterlimit:10;clip-path:url(#cO)" transform="matrix(.13333733 0 0 -.13333733 418.98933 74.457333)"/></g><g clip-path="url(#cR)"><path d="m0 0h100v100h-100z" style="fill:#356600;stroke:#d3d3d3;stroke-width:1.9;stroke-linecap:round;stroke-linejoin:round;stroke-miterlimit:10;clip-path:url(#cQ)" transform="matrix(.13333733 0 0 -.13333733 454.472 74.457333)"/></g><g clip-path="url(#cT)"><path d="m0 0h100v100h-100z" style="fill:#fff;stroke:#d3d3d3;stroke-width:1.9;stroke-linecap:round;stroke-linejoin:round;stroke-miterlimit:10;clip-path:url(#cS)" transform="matrix(.13333733 0 0 -.13333733 488.86 74.457333)"/></g><text clip-path="url(#cU)" transform="matrix(1.3333333 0 0 1.3333333 94.602667 89.6)"><tspan font-family="Nimbus Roman No9 L" font-size="8.9664" x="0 6.473741 11.952211 22.16494 25.65287 29.633951 32.619762 36.600845 40.581928" y="0">DEMscreen</tspan></text><g clip-path="url(#ex)"><path clip-path="url(#cV)" d="m0 0h15.1992v100h-15.1992z" fill="#048432" transform="matrix(.133344 0 0 -.13333733 205.032 90.886667)"/><path clip-path="url(#cW)" d="m10.1016 0h15.1992v100h-15.1992z" fill="#0b8931" transform="matrix(.133344 0 0 -.13333733 205.032 90.886667)"/><path clip-path="url(#cX)" d="m20.1992 0h15.1992v100h-15.1992z" fill="#128f2e" transform="matrix(.133344 0 0 -.13333733 205.032 90.886667)"/><path clip-path="url(#cY)" d="m30.3008 0h15.1992v100h-15.1992z" fill="#17952d" transform="matrix(.133344 0 0 -.13333733 205.032 90.886667)"/><path clip-path="url(#cZ)" d="m40.3984 0h15.2031v100h-15.2031z" fill="#1c9a2a" transform="matrix(.133344 0 0 -.13333733 205.032 90.886667)"/><path clip-path="url(#c0)" d="m50.5 0h15.1992v100h-15.1992z" fill="#1fa027" transform="matrix(.133344 0 0 -.13333733 205.032 90.886667)"/><path clip-path="url(#c1)" d="m60.6016 0h15.1992v100h-15.1992z" fill="#22a622" transform="matrix(.133344 0 0 -.13333733 205.032 90.886667)"/><path clip-path="url(#c2)" d="m70.6992 0h15.1992v100h-15.1992z" fill="#25ac1e" transform="matrix(.133344 0 0 -.13333733 205.032 90.886667)"/><path clip-path="url(#c3)" d="m80.8008 0h15.1992v100h-15.1992z" fill="#28b218" transform="matrix(.133344 0 0 -.13333733 205.032 90.886667)"/><path clip-path="url(#c4)" d="m90.8984 0h15.2031v100h-15.2031z" fill="#2db811" transform="matrix(.133344 0 0 -.13333733 205.032 90.886667)"/><path clip-path="url(#c5)" d="m101 0h15.1992v100h-15.1992z" fill="#2fbf08" transform="matrix(.133344 0 0 -.13333733 205.032 90.886667)"/><path clip-path="url(#c6)" d="m111.102 0h15.1992v100h-15.1992z" fill="#33c500" transform="matrix(.133344 0 0 -.13333733 205.032 90.886667)"/><path clip-path="url(#c7)" d="m121.199 0h15.1992v100h-15.1992z" fill="#36cb00" transform="matrix(.133344 0 0 -.13333733 205.032 90.886667)"/><path clip-path="url(#c8)" d="m131.301 0h15.1992v100h-15.1992z" fill="#49cf00" transform="matrix(.133344 0 0 -.13333733 205.032 90.886667)"/><path clip-path="url(#c9)" d="m141.398 0h15.2031v100h-15.2031z" fill="#5fd30c" transform="matrix(.133344 0 0 -.13333733 205.032 90.886667)"/><path clip-path="url(#da)" d="m151.5 0h15.1992v100h-15.1992z" fill="#70d51f" transform="matrix(.133344 0 0 -.13333733 205.032 90.886667)"/><path clip-path="url(#db)" d="m161.602 0h15.1992v100h-15.1992z" fill="#80d92a" transform="matrix(.133344 0 0 -.13333733 205.032 90.886667)"/><path clip-path="url(#dc)" d="m171.699 0h15.1992v100h-15.1992z" fill="#90dc34" transform="matrix(.133344 0 0 -.13333733 205.032 90.886667)"/><path clip-path="url(#dd)" d="m181.801 0h15.1992v100h-15.1992z" fill="#9edf3b" transform="matrix(.133344 0 0 -.13333733 205.032 90.886667)"/><path clip-path="url(#de)" d="m191.898 0h15.2031v100h-15.2031z" fill="#ace245" transform="matrix(.133344 0 0 -.13333733 205.032 90.886667)"/><path clip-path="url(#df)" d="m202 0h15.1992v100h-15.1992z" fill="#bae44c" transform="matrix(.133344 0 0 -.13333733 205.032 90.886667)"/><path clip-path="url(#dg)" d="m212.102 0h15.1992v100h-15.1992z" fill="#c8e754" transform="matrix(.133344 0 0 -.13333733 205.032 90.886667)"/><path clip-path="url(#dh)" d="m222.199 0h15.1992v100h-15.1992z" fill="#d5ea5b" transform="matrix(.133344 0 0 -.13333733 205.032 90.886667)"/><path clip-path="url(#di)" d="m232.301 0h15.1992v100h-15.1992z" fill="#e2ec62" transform="matrix(.133344 0 0 -.13333733 205.032 90.886667)"/><path clip-path="url(#dj)" d="m242.398 0h15.2031v100h-15.2031z" fill="#eeef69" transform="matrix(.133344 0 0 -.13333733 205.032 90.886667)"/><path clip-path="url(#dk)" d="m252.5 0h15.1992v100h-15.1992z" fill="#f4ef6c" transform="matrix(.133344 0 0 -.13333733 205.032 90.886667)"/><path clip-path="url(#dl)" d="m262.602 0h15.1992v100h-15.1992z" fill="#f4ec6a" transform="matrix(.133344 0 0 -.13333733 205.032 90.886667)"/><path clip-path="url(#dm)" d="m272.699 0h15.1992v100h-15.1992z" fill="#f4eb68" transform="matrix(.133344 0 0 -.13333733 205.032 90.886667)"/><path clip-path="url(#dn)" d="m282.801 0h15.1992v100h-15.1992z" fill="#f5e866" transform="matrix(.133344 0 0 -.13333733 205.032 90.886667)"/><path clip-path="url(#do)" d="m292.898 0h15.2031v100h-15.2031z" fill="#f6e664" transform="matrix(.133344 0 0 -.13333733 205.032 90.886667)"/><path clip-path="url(#dp)" d="m303 0h15.1992v100h-15.1992z" fill="#f6e463" transform="matrix(.133344 0 0 -.13333733 205.032 90.886667)"/><path clip-path="url(#dq)" d="m313.102 0h15.1992v100h-15.1992z" fill="#f6e261" transform="matrix(.133344 0 0 -.13333733 205.032 90.886667)"/><path clip-path="url(#dr)" d="m323.199 0h15.1992v100h-15.1992z" fill="#f5e160" transform="matrix(.133344 0 0 -.13333733 205.032 90.886667)"/><path clip-path="url(#ds)" d="m333.301 0h15.1992v100h-15.1992z" fill="#f6de5d" transform="matrix(.133344 0 0 -.13333733 205.032 90.886667)"/><path clip-path="url(#dt)" d="m343.398 0h15.2031v100h-15.2031z" fill="#f5dc5b" transform="matrix(.133344 0 0 -.13333733 205.032 90.886667)"/><path clip-path="url(#du)" d="m353.5 0h15.1992v100h-15.1992z" fill="#f6da5a" transform="matrix(.133344 0 0 -.13333733 205.032 90.886667)"/><path clip-path="url(#dv)" d="m363.602 0h15.1992v100h-15.1992z" fill="#f5d858" transform="matrix(.133344 0 0 -.13333733 205.032 90.886667)"/><path clip-path="url(#dw)" d="m373.699 0h15.1992v100h-15.1992z" fill="#f4d656" transform="matrix(.133344 0 0 -.13333733 205.032 90.886667)"/><path clip-path="url(#dx)" d="m383.801 0h15.1992v100h-15.1992z" fill="#f4d354" transform="matrix(.133344 0 0 -.13333733 205.032 90.886667)"/><path clip-path="url(#dy)" d="m393.898 0h15.2031v100h-15.2031z" fill="#f5d152" transform="matrix(.133344 0 0 -.13333733 205.032 90.886667)"/><path clip-path="url(#dz)" d="m404 0h15.1992v100h-15.1992z" fill="#f5d051" transform="matrix(.133344 0 0 -.13333733 205.032 90.886667)"/><path clip-path="url(#dA)" d="m414.102 0h15.1992v100h-15.1992z" fill="#f6cd4f" transform="matrix(.133344 0 0 -.13333733 205.032 90.886667)"/><path clip-path="url(#dB)" d="m424.199 0h15.1992v100h-15.1992z" fill="#f5cc4e" transform="matrix(.133344 0 0 -.13333733 205.032 90.886667)"/><path clip-path="url(#dC)" d="m434.301 0h15.1992v100h-15.1992z" fill="#f6c94b" transform="matrix(.133344 0 0 -.13333733 205.032 90.886667)"/><path clip-path="url(#dD)" d="m444.398 0h15.2031v100h-15.2031z" fill="#f5c649" transform="matrix(.133344 0 0 -.13333733 205.032 90.886667)"/><path clip-path="url(#dE)" d="m454.5 0h15.1992v100h-15.1992z" fill="#f6c548" transform="matrix(.133344 0 0 -.13333733 205.032 90.886667)"/><path clip-path="url(#dF)" d="m464.602 0h15.1992v100h-15.1992z" fill="#f4c346" transform="matrix(.133344 0 0 -.13333733 205.032 90.886667)"/><path clip-path="url(#dG)" d="m474.699 0h15.1992v100h-15.1992z" fill="#f4c144" transform="matrix(.133344 0 0 -.13333733 205.032 90.886667)"/><path clip-path="url(#dH)" d="m484.801 0h15.1992v100h-15.1992z" fill="#f4bf42" transform="matrix(.133344 0 0 -.13333733 205.032 90.886667)"/><path clip-path="url(#dI)" d="m494.898 0h15.2031v100h-15.2031z" fill="#f4bd41" transform="matrix(.133344 0 0 -.13333733 205.032 90.886667)"/><path clip-path="url(#dJ)" d="m505.102 0h15.1992v100h-15.1992z" fill="#f1b940" transform="matrix(.133344 0 0 -.13333733 205.032 90.886667)"/><path clip-path="url(#dK)" d="m515.199 0h15.1992v100h-15.1992z" fill="#edb53f" transform="matrix(.133344 0 0 -.13333733 205.032 90.886667)"/><path clip-path="url(#dL)" d="m525.301 0h15.1992v100h-15.1992z" fill="#e9b13e" transform="matrix(.133344 0 0 -.13333733 205.032 90.886667)"/><path clip-path="url(#dM)" d="m535.398 0h15.2031v100h-15.2031z" fill="#e5ad3c" transform="matrix(.133344 0 0 -.13333733 205.032 90.886667)"/><path clip-path="url(#dN)" d="m545.5 0h15.1992v100h-15.1992z" fill="#e2aa3b" transform="matrix(.133344 0 0 -.13333733 205.032 90.886667)"/><path clip-path="url(#dO)" d="m555.602 0h15.1992v100h-15.1992z" fill="#dda63a" transform="matrix(.133344 0 0 -.13333733 205.032 90.886667)"/><path clip-path="url(#dP)" d="m565.699 0h15.1992v100h-15.1992z" fill="#d9a23a" transform="matrix(.133344 0 0 -.13333733 205.032 90.886667)"/><path clip-path="url(#dQ)" d="m575.801 0h15.1992v100h-15.1992z" fill="#d59f39" transform="matrix(.133344 0 0 -.13333733 205.032 90.886667)"/><path clip-path="url(#dR)" d="m585.898 0h15.2031v100h-15.2031z" fill="#d19b38" transform="matrix(.133344 0 0 -.13333733 205.032 90.886667)"/><path clip-path="url(#dS)" d="m596 0h15.1992v100h-15.1992z" fill="#cf9837" transform="matrix(.133344 0 0 -.13333733 205.032 90.886667)"/><path clip-path="url(#dT)" d="m606.102 0h15.1992v100h-15.1992z" fill="#cb9336" transform="matrix(.133344 0 0 -.13333733 205.032 90.886667)"/><path clip-path="url(#dU)" d="m616.199 0h15.1992v100h-15.1992z" fill="#c78f36" transform="matrix(.133344 0 0 -.13333733 205.032 90.886667)"/><path clip-path="url(#dV)" d="m626.301 0h15.1992v100h-15.1992z" fill="#c38c35" transform="matrix(.133344 0 0 -.13333733 205.032 90.886667)"/><path clip-path="url(#dW)" d="m636.398 0h15.2031v100h-15.2031z" fill="#c08834" transform="matrix(.133344 0 0 -.13333733 205.032 90.886667)"/><path clip-path="url(#dX)" d="m646.5 0h15.1992v100h-15.1992z" fill="#bc8532" transform="matrix(.133344 0 0 -.13333733 205.032 90.886667)"/><path clip-path="url(#dY)" d="m656.602 0h15.1992v100h-15.1992z" fill="#b78231" transform="matrix(.133344 0 0 -.13333733 205.032 90.886667)"/><path clip-path="url(#dZ)" d="m666.699 0h15.1992v100h-15.1992z" fill="#b37d31" transform="matrix(.133344 0 0 -.13333733 205.032 90.886667)"/><path clip-path="url(#d0)" d="m676.801 0h15.1992v100h-15.1992z" fill="#b07a30" transform="matrix(.133344 0 0 -.13333733 205.032 90.886667)"/><path clip-path="url(#d1)" d="m686.898 0h15.2031v100h-15.2031z" fill="#ac772e" transform="matrix(.133344 0 0 -.13333733 205.032 90.886667)"/><path clip-path="url(#d2)" d="m697 0h15.1992v100h-15.1992z" fill="#aa732e" transform="matrix(.133344 0 0 -.13333733 205.032 90.886667)"/><path clip-path="url(#d3)" d="m707.102 0h15.1992v100h-15.1992z" fill="#a6702c" transform="matrix(.133344 0 0 -.13333733 205.032 90.886667)"/><path clip-path="url(#d4)" d="m717.199 0h15.1992v100h-15.1992z" fill="#a26c2b" transform="matrix(.133344 0 0 -.13333733 205.032 90.886667)"/><path clip-path="url(#d5)" d="m727.301 0h15.1992v100h-15.1992z" fill="#9f692a" transform="matrix(.133344 0 0 -.13333733 205.032 90.886667)"/><path clip-path="url(#d6)" d="m737.398 0h15.2031v100h-15.2031z" fill="#9b652a" transform="matrix(.133344 0 0 -.13333733 205.032 90.886667)"/><path clip-path="url(#d7)" d="m747.5 0h15.1992v100h-15.1992z" fill="#9c662e" transform="matrix(.133344 0 0 -.13333733 205.032 90.886667)"/><path clip-path="url(#d8)" d="m757.602 0h15.1992v100h-15.1992z" fill="#a16c36" transform="matrix(.133344 0 0 -.13333733 205.032 90.886667)"/><path clip-path="url(#d9)" d="m767.699 0h15.1992v100h-15.1992z" fill="#a5723e" transform="matrix(.133344 0 0 -.13333733 205.032 90.886667)"/><path clip-path="url(#ea)" d="m777.801 0h15.1992v100h-15.1992z" fill="#aa7846" transform="matrix(.133344 0 0 -.13333733 205.032 90.886667)"/><path clip-path="url(#eb)" d="m787.898 0h15.2031v100h-15.2031z" fill="#ae7e4e" transform="matrix(.133344 0 0 -.13333733 205.032 90.886667)"/><path clip-path="url(#ec)" d="m798 0h15.1992v100h-15.1992z" fill="#b38457" transform="matrix(.133344 0 0 -.13333733 205.032 90.886667)"/><path clip-path="url(#ed)" d="m808.102 0h15.1992v100h-15.1992z" fill="#b78a5f" transform="matrix(.133344 0 0 -.13333733 205.032 90.886667)"/><path clip-path="url(#ee)" d="m818.199 0h15.1992v100h-15.1992z" fill="#bc9067" transform="matrix(.133344 0 0 -.13333733 205.032 90.886667)"/><path clip-path="url(#ef)" d="m828.301 0h15.1992v100h-15.1992z" fill="#c1976f" transform="matrix(.133344 0 0 -.13333733 205.032 90.886667)"/><path clip-path="url(#eg)" d="m838.398 0h15.2031v100h-15.2031z" fill="#c59d78" transform="matrix(.133344 0 0 -.13333733 205.032 90.886667)"/><path clip-path="url(#eh)" d="m848.5 0h15.1992v100h-15.1992z" fill="#c9a380" transform="matrix(.133344 0 0 -.13333733 205.032 90.886667)"/><path clip-path="url(#ei)" d="m858.602 0h15.1992v100h-15.1992z" fill="#cda988" transform="matrix(.133344 0 0 -.13333733 205.032 90.886667)"/><path clip-path="url(#ej)" d="m868.699 0h15.1992v100h-15.1992z" fill="#d1af91" transform="matrix(.133344 0 0 -.13333733 205.032 90.886667)"/><path clip-path="url(#ek)" d="m878.801 0h15.1992v100h-15.1992z" fill="#d5b69a" transform="matrix(.133344 0 0 -.13333733 205.032 90.886667)"/><path clip-path="url(#el)" d="m888.898 0h15.2031v100h-15.2031z" fill="#dabda3" transform="matrix(.133344 0 0 -.13333733 205.032 90.886667)"/><path clip-path="url(#em)" d="m899 0h15.1992v100h-15.1992z" fill="#ddc3ad" transform="matrix(.133344 0 0 -.13333733 205.032 90.886667)"/><path clip-path="url(#en)" d="m909.102 0h15.1992v100h-15.1992z" fill="#e1c9b5" transform="matrix(.133344 0 0 -.13333733 205.032 90.886667)"/><path clip-path="url(#eo)" d="m919.199 0h15.1992v100h-15.1992z" fill="#e5d0be" transform="matrix(.133344 0 0 -.13333733 205.032 90.886667)"/><path clip-path="url(#ep)" d="m929.301 0h15.1992v100h-15.1992z" fill="#e9d6c7" transform="matrix(.133344 0 0 -.13333733 205.032 90.886667)"/><path clip-path="url(#eq)" d="m939.398 0h15.2031v100h-15.2031z" fill="#edddd1" transform="matrix(.133344 0 0 -.13333733 205.032 90.886667)"/><path clip-path="url(#er)" d="m949.5 0h15.1992v100h-15.1992z" fill="#f0e3d9" transform="matrix(.133344 0 0 -.13333733 205.032 90.886667)"/><path clip-path="url(#es)" d="m959.602 0h15.1992v100h-15.1992z" fill="#f4eae2" transform="matrix(.133344 0 0 -.13333733 205.032 90.886667)"/><path clip-path="url(#et)" d="m969.699 0h15.1992v100h-15.1992z" fill="#f7f1ec" transform="matrix(.133344 0 0 -.13333733 205.032 90.886667)"/><path clip-path="url(#eu)" d="m979.801 0h15.1992v100h-15.1992z" fill="#fbf8f5" transform="matrix(.133344 0 0 -.13333733 205.032 90.886667)"/><path clip-path="url(#ev)" d="m989.898 0h10.1016v100h-10.1016z" fill="#fff" transform="matrix(.133344 0 0 -.13333733 205.032 90.886667)"/><path d="m0 0h1000v100h-1000z" style="fill:none;stroke:#d3d3d3;stroke-width:1.9;stroke-linecap:round;stroke-linejoin:round;stroke-miterlimit:10;clip-path:url(#ew)" transform="matrix(.133344 0 0 -.13333733 205.032 90.886667)"/></g><text clip-path="url(#ey)" transform="matrix(1.3333333 0 0 1.3333333 372.776 89.6)"><tspan font-family="Standard Symbols L" font-size="8.9664" x="0" y="0">∞</tspan></text><g clip-path="url(#eA)"><path d="m0 0h100v100h-100z" style="fill:#048433;stroke:#d3d3d3;stroke-width:1.9;stroke-linecap:round;stroke-linejoin:round;stroke-miterlimit:10;clip-path:url(#ez)" transform="matrix(.13333733 0 0 -.13333733 418.98933 90.886667)"/></g><g clip-path="url(#eC)"><path d="m0 0h100v100h-100z" style="fill:#fff;stroke:#d3d3d3;stroke-width:1.9;stroke-linecap:round;stroke-linejoin:round;stroke-miterlimit:10;clip-path:url(#eB)" transform="matrix(.13333733 0 0 -.13333733 454.472 90.886667)"/></g><g clip-path="url(#eE)"><path d="m0 0h100v100h-100z" style="fill:#048433;stroke:#d3d3d3;stroke-width:1.9;stroke-linecap:round;stroke-linejoin:round;stroke-miterlimit:10;clip-path:url(#eD)" transform="matrix(.13333733 0 0 -.13333733 488.86 90.886667)"/></g><path clip-path="url(#eF)" d="m0 0h382.271" fill="none" stroke="#000" stroke-miterlimit="10" stroke-width=".797" transform="matrix(1.3333333 0 0 -1.3333333 2.661333 96.802667)"/></g></svg>