<svg height="65.333336" viewBox="0 0 514.66669 65.333336" width="514.66669" xmlns="http://www.w3.org/2000/svg" xmlns:xlink="http://www.w3.org/1999/xlink"><clipPath id="a"><path d="m0 0h996.264v48.376h-996.264z" transform="matrix(1 0 0 -1 0 40.008001)"/></clipPath><clipPath id="b"><path d="m0 0h996.264v48.376h-996.264z" transform="translate(0 -34.030001)"/></clipPath><clipPath id="c"><path d="m0 0h996.264v48.376h-996.264z" transform="matrix(1 0 0 -1 -21.427001 23.173)"/></clipPath><clipPath id="d"><path d="m0 0h996.264v48.376h-996.264z" transform="translate(0 -17.871)"/></clipPath><clipPath id="e"><path d="m0 0h996.264v48.376h-996.264z" transform="matrix(1 0 0 -1 -5.978 5.8)"/></clipPath><clipPath id="f"><path d="m0 0h100v10h-100z" transform="matrix(10 0 0 10 0 -.000002)"/></clipPath><clipPath id="g"><path d="m0 0h100v10h-100z" transform="matrix(10 0 0 10 0 -.000002)"/></clipPath><clipPath id="h"><path d="m0 0h100v10h-100z" transform="matrix(10 0 0 10 0 -.000002)"/></clipPath><clipPath id="i"><path d="m0 0h100v10h-100z" transform="matrix(10 0 0 10 0 -.000002)"/></clipPath><clipPath id="j"><path d="m0 0h100v10h-100z" transform="matrix(10 0 0 10 0 -.000002)"/></clipPath><clipPath id="k"><path d="m0 0h100v10h-100z" transform="matrix(10 0 0 10 0 -.000002)"/></clipPath><clipPath id="l"><path d="m0 0h100v10h-100z" transform="matrix(10 0 0 10 0 -.000002)"/></clipPath><clipPath id="m"><path d="m0 0h100v10h-100z" transform="matrix(10 0 0 10 0 -.000002)"/></clipPath><clipPath id="n"><path d="m0 0h100v10h-100z" transform="matrix(10 0 0 10 0 -.000002)"/></clipPath><clipPath id="o"><path d="m0 0h100v10h-100z" transform="matrix(10 0 0 10 0 -.000002)"/></clipPath><clipPath id="p"><path d="m0 0h100v10h-100z" transform="matrix(10 0 0 10 0 -.000002)"/></clipPath><clipPath id="q"><path d="m0 0h100v10h-100z" transform="matrix(10 0 0 10 0 -.000002)"/></clipPath><clipPath id="r"><path d="m0 0h100v10h-100z" transform="matrix(10 0 0 10 0 -.000002)"/></clipPath><clipPath id="s"><path d="m0 0h100v10h-100z" transform="matrix(10 0 0 10 0 -.000002)"/></clipPath><clipPath id="t"><path d="m0 0h100v10h-100z" transform="matrix(10 0 0 10 0 -.000002)"/></clipPath><clipPath id="u"><path d="m0 0h100v10h-100z" transform="matrix(10 0 0 10 0 -.000002)"/></clipPath><clipPath id="v"><path d="m0 0h100v10h-100z" transform="matrix(10 0 0 10 0 -.000002)"/></clipPath><clipPath id="w"><path d="m0 0h100v10h-100z" transform="matrix(10 0 0 10 0 -.000002)"/></clipPath><clipPath id="x"><path d="m0 0h100v10h-100z" transform="matrix(10 0 0 10 0 -.000002)"/></clipPath><clipPath id="y"><path d="m0 0h100v10h-100z" transform="matrix(10 0 0 10 0 -.000002)"/></clipPath><clipPath id="z"><path d="m0 0h100v10h-100z" transform="matrix(10 0 0 10 0 -.000002)"/></clipPath><clipPath id="A"><path d="m0 0h100v10h-100z" transform="matrix(10 0 0 10 0 -.000002)"/></clipPath><clipPath id="B"><path d="m0 0h100v10h-100z" transform="matrix(10 0 0 10 0 -.000002)"/></clipPath><clipPath id="C"><path d="m0 0h100v10h-100z" transform="matrix(10 0 0 10 0 -.000002)"/></clipPath><clipPath id="D"><path d="m0 0h100v10h-100z" transform="matrix(10 0 0 10 0 -.000002)"/></clipPath><clipPath id="E"><path d="m0 0h100v10h-100z" transform="matrix(10 0 0 10 0 -.000002)"/></clipPath><clipPath id="F"><path d="m0 0h100v10h-100z" transform="matrix(10 0 0 10 0 -.000002)"/></clipPath><clipPath id="G"><path d="m0 0h100v10h-100z" transform="matrix(10 0 0 10 0 -.000002)"/></clipPath><clipPath id="H"><path d="m0 0h100v10h-100z" transform="matrix(10 0 0 10 0 -.000002)"/></clipPath><clipPath id="I"><path d="m0 0h100v10h-100z" transform="matrix(10 0 0 10 0 -.000002)"/></clipPath><clipPath id="J"><path d="m0 0h100v10h-100z" transform="matrix(10 0 0 10 0 -.000002)"/></clipPath><clipPath id="K"><path d="m0 0h100v10h-100z" transform="matrix(10 0 0 10 0 -.000002)"/></clipPath><clipPath id="L"><path d="m0 0h100v10h-100z" transform="matrix(10 0 0 10 0 -.000002)"/></clipPath><clipPath id="M"><path d="m0 0h100v10h-100z" transform="matrix(10 0 0 10 0 -.000002)"/></clipPath><clipPath id="N"><path d="m0 0h100v10h-100z" transform="matrix(10 0 0 10 0 -.000002)"/></clipPath><clipPath id="O"><path d="m0 0h100v10h-100z" transform="matrix(10 0 0 10 0 -.000002)"/></clipPath><clipPath id="P"><path d="m0 0h100v10h-100z" transform="matrix(10 0 0 10 0 -.000002)"/></clipPath><clipPath id="Q"><path d="m0 0h100v10h-100z" transform="matrix(10 0 0 10 0 -.000002)"/></clipPath><clipPath id="R"><path d="m0 0h100v10h-100z" transform="matrix(10 0 0 10 0 -.000002)"/></clipPath><clipPath id="S"><path d="m0 0h100v10h-100z" transform="matrix(10 0 0 10 0 -.000002)"/></clipPath><clipPath id="T"><path d="m0 0h100v10h-100z" transform="matrix(10 0 0 10 0 -.000002)"/></clipPath><clipPath id="U"><path d="m0 0h100v10h-100z" transform="matrix(10 0 0 10 0 -.000002)"/></clipPath><clipPath id="V"><path d="m0 0h100v10h-100z" transform="matrix(10 0 0 10 0 -.000002)"/></clipPath><clipPath id="W"><path d="m0 0h100v10h-100z" transform="matrix(10 0 0 10 0 -.000002)"/></clipPath><clipPath id="X"><path d="m0 0h100v10h-100z" transform="matrix(10 0 0 10 0 -.000002)"/></clipPath><clipPath id="Y"><path d="m0 0h100v10h-100z" transform="matrix(10 0 0 10 0 -.000002)"/></clipPath><clipPath id="Z"><path d="m0 0h100v10h-100z" transform="matrix(10 0 0 10 0 -.000002)"/></clipPath><clipPath id="aa"><path d="m0 0h100v10h-100z" transform="matrix(10 0 0 10 0 -.000002)"/></clipPath><clipPath id="ab"><path d="m0 0h100v10h-100z" transform="matrix(10 0 0 10 0 -.000002)"/></clipPath><clipPath id="ac"><path d="m0 0h100v10h-100z" transform="matrix(10 0 0 10 0 -.000002)"/></clipPath><clipPath id="ad"><path d="m0 0h100v10h-100z" transform="matrix(10 0 0 10 0 -.000002)"/></clipPath><clipPath id="ae"><path d="m0 0h100v10h-100z" transform="matrix(10 0 0 10 0 -.000002)"/></clipPath><clipPath id="af"><path d="m0 0h100v10h-100z" transform="matrix(10 0 0 10 0 -.000002)"/></clipPath><clipPath id="ag"><path d="m0 0h100v10h-100z" transform="matrix(10 0 0 10 0 -.000002)"/></clipPath><clipPath id="ah"><path d="m0 0h100v10h-100z" transform="matrix(10 0 0 10 0 -.000002)"/></clipPath><clipPath id="ai"><path d="m0 0h100v10h-100z" transform="matrix(10 0 0 10 0 -.000002)"/></clipPath><clipPath id="aj"><path d="m0 0h100v10h-100z" transform="matrix(10 0 0 10 0 -.000002)"/></clipPath><clipPath id="ak"><path d="m0 0h100v10h-100z" transform="matrix(10 0 0 10 0 -.000002)"/></clipPath><clipPath id="al"><path d="m0 0h100v10h-100z" transform="matrix(10 0 0 10 0 -.000002)"/></clipPath><clipPath id="am"><path d="m0 0h100v10h-100z" transform="matrix(10 0 0 10 0 -.000002)"/></clipPath><clipPath id="an"><path d="m0 0h100v10h-100z" transform="matrix(10 0 0 10 0 -.000002)"/></clipPath><clipPath id="ao"><path d="m0 0h100v10h-100z" transform="matrix(10 0 0 10 0 -.000002)"/></clipPath><clipPath id="ap"><path d="m0 0h100v10h-100z" transform="matrix(10 0 0 10 0 -.000002)"/></clipPath><clipPath id="aq"><path d="m0 0h100v10h-100z" transform="matrix(10 0 0 10 0 -.000002)"/></clipPath><clipPath id="ar"><path d="m0 0h100v10h-100z" transform="matrix(10 0 0 10 0 -.000002)"/></clipPath><clipPath id="as"><path d="m0 0h100v10h-100z" transform="matrix(10 0 0 10 0 -.000002)"/></clipPath><clipPath id="at"><path d="m0 0h100v10h-100z" transform="matrix(10 0 0 10 0 -.000002)"/></clipPath><clipPath id="au"><path d="m0 0h100v10h-100z" transform="matrix(10 0 0 10 0 -.000002)"/></clipPath><clipPath id="av"><path d="m0 0h100v10h-100z" transform="matrix(10 0 0 10 0 -.000002)"/></clipPath><clipPath id="aw"><path d="m0 0h100v10h-100z" transform="matrix(10 0 0 10 0 -.000002)"/></clipPath><clipPath id="ax"><path d="m0 0h100v10h-100z" transform="matrix(10 0 0 10 0 -.000002)"/></clipPath><clipPath id="ay"><path d="m0 0h100v10h-100z" transform="matrix(10 0 0 10 0 -.000002)"/></clipPath><clipPath id="az"><path d="m0 0h100v10h-100z" transform="matrix(10 0 0 10 0 -.000002)"/></clipPath><clipPath id="aA"><path d="m0 0h100v10h-100z" transform="matrix(10 0 0 10 0 -.000002)"/></clipPath><clipPath id="aB"><path d="m0 0h100v10h-100z" transform="matrix(10 0 0 10 0 -.000002)"/></clipPath><clipPath id="aC"><path d="m0 0h100v10h-100z" transform="matrix(10 0 0 10 0 -.000002)"/></clipPath><clipPath id="aD"><path d="m0 0h100v10h-100z" transform="matrix(10 0 0 10 0 -.000002)"/></clipPath><clipPath id="aE"><path d="m0 0h100v10h-100z" transform="matrix(10 0 0 10 0 -.000002)"/></clipPath><clipPath id="aF"><path d="m0 0h100v10h-100z" transform="matrix(10 0 0 10 0 -.000002)"/></clipPath><clipPath id="aG"><path d="m0 0h100v10h-100z" transform="matrix(10 0 0 10 0 -.000002)"/></clipPath><clipPath id="aH"><path d="m0 0h100v10h-100z" transform="matrix(10 0 0 10 0 -.000002)"/></clipPath><clipPath id="aI"><path d="m0 0h100v10h-100z" transform="matrix(10 0 0 10 0 -.000002)"/></clipPath><clipPath id="aJ"><path d="m0 0h100v10h-100z" transform="matrix(10 0 0 10 0 -.000002)"/></clipPath><clipPath id="aK"><path d="m0 0h100v10h-100z" transform="matrix(10 0 0 10 0 -.000002)"/></clipPath><clipPath id="aL"><path d="m0 0h100v10h-100z" transform="matrix(10 0 0 10 0 -.000002)"/></clipPath><clipPath id="aM"><path d="m0 0h100v10h-100z" transform="matrix(10 0 0 10 0 -.000002)"/></clipPath><clipPath id="aN"><path d="m0 0h100v10h-100z" transform="matrix(10 0 0 10 0 -.000002)"/></clipPath><clipPath id="aO"><path d="m0 0h100v10h-100z" transform="matrix(10 0 0 10 0 -.000002)"/></clipPath><clipPath id="aP"><path d="m0 0h100v10h-100z" transform="matrix(10 0 0 10 0 -.000002)"/></clipPath><clipPath id="aQ"><path d="m0 0h100v10h-100z" transform="matrix(10 0 0 10 0 -.000002)"/></clipPath><clipPath id="aR"><path d="m0 0h100v10h-100z" transform="matrix(10 0 0 10 0 -.000002)"/></clipPath><clipPath id="aS"><path d="m0 0h100v10h-100z" transform="matrix(10 0 0 10 0 -.000002)"/></clipPath><clipPath id="aT"><path d="m0 0h100v10h-100z" transform="matrix(10 0 0 10 0 -.000002)"/></clipPath><clipPath id="aU"><path d="m0 0h100v10h-100z" transform="matrix(10 0 0 10 0 -.000002)"/></clipPath><clipPath id="aV"><path d="m0 0h100v10h-100z" transform="matrix(10 0 0 10 0 -.000002)"/></clipPath><clipPath id="aW"><path d="m0 0h100v10h-100z" transform="matrix(10 0 0 10 0 -.000002)"/></clipPath><clipPath id="aX"><path d="m0 0h100v10h-100z" transform="matrix(10 0 0 10 0 -.000002)"/></clipPath><clipPath id="aY"><path d="m0 0h100v10h-100z" transform="matrix(10 0 0 10 0 -.000002)"/></clipPath><clipPath id="aZ"><path d="m0 0h100v10h-100z" transform="matrix(10 0 0 10 0 -.000002)"/></clipPath><clipPath id="a0"><path d="m0 0h100v10h-100z" transform="matrix(10 0 0 10 0 -.000002)"/></clipPath><clipPath id="a1"><path d="m0 0h996.264v48.376h-996.264z" transform="matrix(1.3333333 0 0 -1.3333333 2.661333 64)"/></clipPath><clipPath id="a2"><path d="m0 0h996.264v48.376h-996.264z" transform="matrix(1 0 0 -1 -277.58601 5.8)"/></clipPath><clipPath id="a3"><path d="m0 0h996.264v48.376h-996.264z" transform="translate(0 -.398)"/></clipPath><clipPath id="a4"><path d="m0 0h384v47h-384z" transform="matrix(1.3333333 0 0 -1.3333333 1.328 64)"/></clipPath><g clip-path="url(#a4)"><text clip-path="url(#a)" transform="matrix(1.3333333 0 0 1.3333333 2.661333 10.656)"><tspan font-family="Nimbus Roman No9 L" font-size="9.9626" font-weight="700" x="0 5.728495 10.709795 16.249001 19.018604 25.932648 30.913948" y="0">Table1.</tspan><tspan font-family="Nimbus Roman No9 L" font-size="9.9626" x="36.493 42.032207 46.455601 51.436901 55.860294 63.611198 70.525238 75.506538 82.978493 90.171486 95.152786 97.922394 102.90369 110.37564 119.23239 122.002 126.9833 131.9646 136.38799 139.15759 141.9272 146.75906 154.231 157.54855 162.52985 167.51115 172.49245 177.47375 180.79131 186.05154 189.36909 193.7925 196.56209 200.98549 205.40889 209.28433 213.70773 221.17967 226.16098 231.14227 236.12358 240.54697 246.35516 250.77856 258.25052 263.23181 268.2131 272.63651 280.10846 282.87805 285.64767 290.07104 294.49445 299.47574 303.3512 307.7746" y="0">SchemebyAntonMikhailov(2019);releasedunderanopenlicense.</tspan></text><path clip-path="url(#b)" d="m0 0h382.271" fill="none" stroke="#000" stroke-miterlimit="10" stroke-width=".797" transform="matrix(1.3333333 0 0 -1.3333333 2.661333 18.626667)"/><text clip-path="url(#c)" transform="matrix(1.3333333 0 0 1.3333333 31.230667 33.102667)"><tspan font-family="Latin Modern Sans" font-size="8.9664" font-weight="700" x="0 5.750152 10.233353 15.542357 67.046257 72.52562 76.909294 81.940346 86.523071 94.29425 165.63182 171.66441 176.37178 178.66269 183.24542 186.86964 190.49385 246.83064 255.59799 260.30536 268.07922 292.87222 319.75708 346.10303" y="0">TypeSchemePaletteMaxnNBF</tspan></text><path clip-path="url(#d)" d="m0 0h382.271" fill="none" stroke="#000" stroke-miterlimit="10" stroke-width=".498" transform="matrix(1.3333333 0 0 -1.3333333 2.661333 40.172)"/><text clip-path="url(#e)" transform="matrix(1.3333333 0 0 1.3333333 10.632 56.266667)"><tspan font-family="Nimbus Roman No9 L" font-size="8.9664" x="0 4.985318 8.9664 13.4496 17.9328 21.913881 26.397081 28.88974 31.382401 35.363483 62.979992 65.472656 69.955856 72.941666 77.424866" y="0">Sequentialturbo</tspan></text><g clip-path="url(#a1)"><path clip-path="url(#f)" d="m0 0h15.1992v100h-15.1992z" fill="#30133b" transform="matrix(.133344 0 0 -.13333733 205.032 57.553333)"/><path clip-path="url(#g)" d="m10.1016 0h15.1992v100h-15.1992z" fill="#341a4e" transform="matrix(.133344 0 0 -.13333733 205.032 57.553333)"/><path clip-path="url(#h)" d="m20.1992 0h15.1992v100h-15.1992z" fill="#382162" transform="matrix(.133344 0 0 -.13333733 205.032 57.553333)"/><path clip-path="url(#i)" d="m30.3008 0h15.1992v100h-15.1992z" fill="#392973" transform="matrix(.133344 0 0 -.13333733 205.032 57.553333)"/><path clip-path="url(#j)" d="m40.3984 0h15.2031v100h-15.2031z" fill="#3c3183" transform="matrix(.133344 0 0 -.13333733 205.032 57.553333)"/><path clip-path="url(#k)" d="m50.5 0h15.1992v100h-15.1992z" fill="#3e3792" transform="matrix(.133344 0 0 -.13333733 205.032 57.553333)"/><path clip-path="url(#l)" d="m60.6016 0h15.1992v100h-15.1992z" fill="#3f3ea1" transform="matrix(.133344 0 0 -.13333733 205.032 57.553333)"/><path clip-path="url(#m)" d="m70.6992 0h15.1992v100h-15.1992z" fill="#4045ae" transform="matrix(.133344 0 0 -.13333733 205.032 57.553333)"/><path clip-path="url(#n)" d="m80.8008 0h15.1992v100h-15.1992z" fill="#424dba" transform="matrix(.133344 0 0 -.13333733 205.032 57.553333)"/><path clip-path="url(#o)" d="m90.8984 0h15.2031v100h-15.2031z" fill="#4354c6" transform="matrix(.133344 0 0 -.13333733 205.032 57.553333)"/><path clip-path="url(#p)" d="m101 0h15.1992v100h-15.1992z" fill="#445bd0" transform="matrix(.133344 0 0 -.13333733 205.032 57.553333)"/><path clip-path="url(#q)" d="m111.102 0h15.1992v100h-15.1992z" fill="#4562d9" transform="matrix(.133344 0 0 -.13333733 205.032 57.553333)"/><path clip-path="url(#r)" d="m121.199 0h15.1992v100h-15.1992z" fill="#4468e3" transform="matrix(.133344 0 0 -.13333733 205.032 57.553333)"/><path clip-path="url(#s)" d="m131.301 0h15.1992v100h-15.1992z" fill="#456fea" transform="matrix(.133344 0 0 -.13333733 205.032 57.553333)"/><path clip-path="url(#t)" d="m141.398 0h15.2031v100h-15.2031z" fill="#4576f1" transform="matrix(.133344 0 0 -.13333733 205.032 57.553333)"/><path clip-path="url(#u)" d="m151.5 0h15.1992v100h-15.1992z" fill="#447cf6" transform="matrix(.133344 0 0 -.13333733 205.032 57.553333)"/><path clip-path="url(#v)" d="m161.602 0h15.1992v100h-15.1992z" fill="#4483fb" transform="matrix(.133344 0 0 -.13333733 205.032 57.553333)"/><path clip-path="url(#w)" d="m171.699 0h15.1992v100h-15.1992z" fill="#4389fe" transform="matrix(.133344 0 0 -.13333733 205.032 57.553333)"/><path clip-path="url(#x)" d="m181.801 0h15.1992v100h-15.1992z" fill="#4190ff" transform="matrix(.133344 0 0 -.13333733 205.032 57.553333)"/><path clip-path="url(#y)" d="m191.898 0h15.2031v100h-15.2031z" fill="#3d96ff" transform="matrix(.133344 0 0 -.13333733 205.032 57.553333)"/><path clip-path="url(#z)" d="m202 0h15.1992v100h-15.1992z" fill="#3a9dff" transform="matrix(.133344 0 0 -.13333733 205.032 57.553333)"/><path clip-path="url(#A)" d="m212.102 0h15.1992v100h-15.1992z" fill="#37a4fc" transform="matrix(.133344 0 0 -.13333733 205.032 57.553333)"/><path clip-path="url(#B)" d="m222.199 0h15.1992v100h-15.1992z" fill="#33abf9" transform="matrix(.133344 0 0 -.13333733 205.032 57.553333)"/><path clip-path="url(#C)" d="m232.301 0h15.1992v100h-15.1992z" fill="#2eb2f5" transform="matrix(.133344 0 0 -.13333733 205.032 57.553333)"/><path clip-path="url(#D)" d="m242.398 0h15.2031v100h-15.2031z" fill="#2ab8f0" transform="matrix(.133344 0 0 -.13333733 205.032 57.553333)"/><path clip-path="url(#E)" d="m252.5 0h15.1992v100h-15.1992z" fill="#26beea" transform="matrix(.133344 0 0 -.13333733 205.032 57.553333)"/><path clip-path="url(#F)" d="m262.602 0h15.1992v100h-15.1992z" fill="#1fc4e4" transform="matrix(.133344 0 0 -.13333733 205.032 57.553333)"/><path clip-path="url(#G)" d="m272.699 0h15.1992v100h-15.1992z" fill="#1ecadc" transform="matrix(.133344 0 0 -.13333733 205.032 57.553333)"/><path clip-path="url(#H)" d="m282.801 0h15.1992v100h-15.1992z" fill="#1bcfd5" transform="matrix(.133344 0 0 -.13333733 205.032 57.553333)"/><path clip-path="url(#I)" d="m292.898 0h15.2031v100h-15.2031z" fill="#1ad4ce" transform="matrix(.133344 0 0 -.13333733 205.032 57.553333)"/><path clip-path="url(#J)" d="m303 0h15.1992v100h-15.1992z" fill="#1ad9c7" transform="matrix(.133344 0 0 -.13333733 205.032 57.553333)"/><path clip-path="url(#K)" d="m313.102 0h15.1992v100h-15.1992z" fill="#1adec1" transform="matrix(.133344 0 0 -.13333733 205.032 57.553333)"/><path clip-path="url(#L)" d="m323.199 0h15.1992v100h-15.1992z" fill="#1ce2b9" transform="matrix(.133344 0 0 -.13333733 205.032 57.553333)"/><path clip-path="url(#M)" d="m333.301 0h15.1992v100h-15.1992z" fill="#1fe6b3" transform="matrix(.133344 0 0 -.13333733 205.032 57.553333)"/><path clip-path="url(#N)" d="m343.398 0h15.2031v100h-15.2031z" fill="#21e9ad" transform="matrix(.133344 0 0 -.13333733 205.032 57.553333)"/><path clip-path="url(#O)" d="m353.5 0h15.1992v100h-15.1992z" fill="#28eca6" transform="matrix(.133344 0 0 -.13333733 205.032 57.553333)"/><path clip-path="url(#P)" d="m363.602 0h15.1992v100h-15.1992z" fill="#2fef9d" transform="matrix(.133344 0 0 -.13333733 205.032 57.553333)"/><path clip-path="url(#Q)" d="m373.699 0h15.1992v100h-15.1992z" fill="#36f295" transform="matrix(.133344 0 0 -.13333733 205.032 57.553333)"/><path clip-path="url(#R)" d="m383.801 0h15.1992v100h-15.1992z" fill="#3ef58c" transform="matrix(.133344 0 0 -.13333733 205.032 57.553333)"/><path clip-path="url(#S)" d="m393.898 0h15.2031v100h-15.2031z" fill="#47f882" transform="matrix(.133344 0 0 -.13333733 205.032 57.553333)"/><path clip-path="url(#T)" d="m404 0h15.1992v100h-15.1992z" fill="#51fa7a" transform="matrix(.133344 0 0 -.13333733 205.032 57.553333)"/><path clip-path="url(#U)" d="m414.102 0h15.1992v100h-15.1992z" fill="#5afc70" transform="matrix(.133344 0 0 -.13333733 205.032 57.553333)"/><path clip-path="url(#V)" d="m424.199 0h15.1992v100h-15.1992z" fill="#64fd67" transform="matrix(.133344 0 0 -.13333733 205.032 57.553333)"/><path clip-path="url(#W)" d="m434.301 0h15.1992v100h-15.1992z" fill="#6ffe5e" transform="matrix(.133344 0 0 -.13333733 205.032 57.553333)"/><path clip-path="url(#X)" d="m444.398 0h15.2031v100h-15.2031z" fill="#79ff55" transform="matrix(.133344 0 0 -.13333733 205.032 57.553333)"/><path clip-path="url(#Y)" d="m454.5 0h15.1992v100h-15.1992z" fill="#82ff4d" transform="matrix(.133344 0 0 -.13333733 205.032 57.553333)"/><path clip-path="url(#Z)" d="m464.602 0h15.1992v100h-15.1992z" fill="#8cff45" transform="matrix(.133344 0 0 -.13333733 205.032 57.553333)"/><path clip-path="url(#aa)" d="m474.699 0h15.1992v100h-15.1992z" fill="#95ff3e" transform="matrix(.133344 0 0 -.13333733 205.032 57.553333)"/><path clip-path="url(#ab)" d="m484.801 0h15.1992v100h-15.1992z" fill="#9cff37" transform="matrix(.133344 0 0 -.13333733 205.032 57.553333)"/><path clip-path="url(#ac)" d="m494.898 0h15.2031v100h-15.2031z" fill="#a4fe32" transform="matrix(.133344 0 0 -.13333733 205.032 57.553333)"/><path clip-path="url(#ad)" d="m505.102 0h15.1992v100h-15.1992z" fill="#abfc2e" transform="matrix(.133344 0 0 -.13333733 205.032 57.553333)"/><path clip-path="url(#ae)" d="m515.199 0h15.1992v100h-15.1992z" fill="#b2fa2c" transform="matrix(.133344 0 0 -.13333733 205.032 57.553333)"/><path clip-path="url(#af)" d="m525.301 0h15.1992v100h-15.1992z" fill="#b8f82a" transform="matrix(.133344 0 0 -.13333733 205.032 57.553333)"/><path clip-path="url(#ag)" d="m535.398 0h15.2031v100h-15.2031z" fill="#bff529" transform="matrix(.133344 0 0 -.13333733 205.032 57.553333)"/><path clip-path="url(#ah)" d="m545.5 0h15.1992v100h-15.1992z" fill="#c6f229" transform="matrix(.133344 0 0 -.13333733 205.032 57.553333)"/><path clip-path="url(#ai)" d="m555.602 0h15.1992v100h-15.1992z" fill="#ccee2a" transform="matrix(.133344 0 0 -.13333733 205.032 57.553333)"/><path clip-path="url(#aj)" d="m565.699 0h15.1992v100h-15.1992z" fill="#d2ea2c" transform="matrix(.133344 0 0 -.13333733 205.032 57.553333)"/><path clip-path="url(#ak)" d="m575.801 0h15.1992v100h-15.1992z" fill="#d8e62c" transform="matrix(.133344 0 0 -.13333733 205.032 57.553333)"/><path clip-path="url(#al)" d="m585.898 0h15.2031v100h-15.2031z" fill="#dee12f" transform="matrix(.133344 0 0 -.13333733 205.032 57.553333)"/><path clip-path="url(#am)" d="m596 0h15.1992v100h-15.1992z" fill="#e3dd30" transform="matrix(.133344 0 0 -.13333733 205.032 57.553333)"/><path clip-path="url(#an)" d="m606.102 0h15.1992v100h-15.1992z" fill="#e8d732" transform="matrix(.133344 0 0 -.13333733 205.032 57.553333)"/><path clip-path="url(#ao)" d="m616.199 0h15.1992v100h-15.1992z" fill="#edd232" transform="matrix(.133344 0 0 -.13333733 205.032 57.553333)"/><path clip-path="url(#ap)" d="m626.301 0h15.1992v100h-15.1992z" fill="#f1cc34" transform="matrix(.133344 0 0 -.13333733 205.032 57.553333)"/><path clip-path="url(#aq)" d="m636.398 0h15.2031v100h-15.2031z" fill="#f5c734" transform="matrix(.133344 0 0 -.13333733 205.032 57.553333)"/><path clip-path="url(#ar)" d="m646.5 0h15.1992v100h-15.1992z" fill="#f8c235" transform="matrix(.133344 0 0 -.13333733 205.032 57.553333)"/><path clip-path="url(#as)" d="m656.602 0h15.1992v100h-15.1992z" fill="#f9bc34" transform="matrix(.133344 0 0 -.13333733 205.032 57.553333)"/><path clip-path="url(#at)" d="m666.699 0h15.1992v100h-15.1992z" fill="#fcb632" transform="matrix(.133344 0 0 -.13333733 205.032 57.553333)"/><path clip-path="url(#au)" d="m676.801 0h15.1992v100h-15.1992z" fill="#feb030" transform="matrix(.133344 0 0 -.13333733 205.032 57.553333)"/><path clip-path="url(#av)" d="m686.898 0h15.2031v100h-15.2031z" fill="#ffa92f" transform="matrix(.133344 0 0 -.13333733 205.032 57.553333)"/><path clip-path="url(#aw)" d="m697 0h15.1992v100h-15.1992z" fill="#ffa22c" transform="matrix(.133344 0 0 -.13333733 205.032 57.553333)"/><path clip-path="url(#ax)" d="m707.102 0h15.1992v100h-15.1992z" fill="#ff9b29" transform="matrix(.133344 0 0 -.13333733 205.032 57.553333)"/><path clip-path="url(#ay)" d="m717.199 0h15.1992v100h-15.1992z" fill="#ff9426" transform="matrix(.133344 0 0 -.13333733 205.032 57.553333)"/><path clip-path="url(#az)" d="m727.301 0h15.1992v100h-15.1992z" fill="#fe8c23" transform="matrix(.133344 0 0 -.13333733 205.032 57.553333)"/><path clip-path="url(#aA)" d="m737.398 0h15.2031v100h-15.2031z" fill="#fc841e" transform="matrix(.133344 0 0 -.13333733 205.032 57.553333)"/><path clip-path="url(#aB)" d="m747.5 0h15.1992v100h-15.1992z" fill="#fa7c1b" transform="matrix(.133344 0 0 -.13333733 205.032 57.553333)"/><path clip-path="url(#aC)" d="m757.602 0h15.1992v100h-15.1992z" fill="#f97419" transform="matrix(.133344 0 0 -.13333733 205.032 57.553333)"/><path clip-path="url(#aD)" d="m767.699 0h15.1992v100h-15.1992z" fill="#f66c15" transform="matrix(.133344 0 0 -.13333733 205.032 57.553333)"/><path clip-path="url(#aE)" d="m777.801 0h15.1992v100h-15.1992z" fill="#f46513" transform="matrix(.133344 0 0 -.13333733 205.032 57.553333)"/><path clip-path="url(#aF)" d="m787.898 0h15.2031v100h-15.2031z" fill="#f15e11" transform="matrix(.133344 0 0 -.13333733 205.032 57.553333)"/><path clip-path="url(#aG)" d="m798 0h15.1992v100h-15.1992z" fill="#ee570d" transform="matrix(.133344 0 0 -.13333733 205.032 57.553333)"/><path clip-path="url(#aH)" d="m808.102 0h15.1992v100h-15.1992z" fill="#eb500b" transform="matrix(.133344 0 0 -.13333733 205.032 57.553333)"/><path clip-path="url(#aI)" d="m818.199 0h15.1992v100h-15.1992z" fill="#e74a09" transform="matrix(.133344 0 0 -.13333733 205.032 57.553333)"/><path clip-path="url(#aJ)" d="m828.301 0h15.1992v100h-15.1992z" fill="#e34408" transform="matrix(.133344 0 0 -.13333733 205.032 57.553333)"/><path clip-path="url(#aK)" d="m838.398 0h15.2031v100h-15.2031z" fill="#df3e06" transform="matrix(.133344 0 0 -.13333733 205.032 57.553333)"/><path clip-path="url(#aL)" d="m848.5 0h15.1992v100h-15.1992z" fill="#da3905" transform="matrix(.133344 0 0 -.13333733 205.032 57.553333)"/><path clip-path="url(#aM)" d="m858.602 0h15.1992v100h-15.1992z" fill="#d63404" transform="matrix(.133344 0 0 -.13333733 205.032 57.553333)"/><path clip-path="url(#aN)" d="m868.699 0h15.1992v100h-15.1992z" fill="#d12f02" transform="matrix(.133344 0 0 -.13333733 205.032 57.553333)"/><path clip-path="url(#aO)" d="m878.801 0h15.1992v100h-15.1992z" fill="#cb2b01" transform="matrix(.133344 0 0 -.13333733 205.032 57.553333)"/><path clip-path="url(#aP)" d="m888.898 0h15.2031v100h-15.2031z" fill="#c52601" transform="matrix(.133344 0 0 -.13333733 205.032 57.553333)"/><path clip-path="url(#aQ)" d="m899 0h15.1992v100h-15.1992z" fill="#bf2200" transform="matrix(.133344 0 0 -.13333733 205.032 57.553333)"/><path clip-path="url(#aR)" d="m909.102 0h15.1992v100h-15.1992z" fill="#b91d01" transform="matrix(.133344 0 0 -.13333733 205.032 57.553333)"/><path clip-path="url(#aS)" d="m919.199 0h15.1992v100h-15.1992z" fill="#b21a00" transform="matrix(.133344 0 0 -.13333733 205.032 57.553333)"/><path clip-path="url(#aT)" d="m929.301 0h15.1992v100h-15.1992z" fill="#ab1700" transform="matrix(.133344 0 0 -.13333733 205.032 57.553333)"/><path clip-path="url(#aU)" d="m939.398 0h15.2031v100h-15.2031z" fill="#a41500" transform="matrix(.133344 0 0 -.13333733 205.032 57.553333)"/><path clip-path="url(#aV)" d="m949.5 0h15.1992v100h-15.1992z" fill="#9c1100" transform="matrix(.133344 0 0 -.13333733 205.032 57.553333)"/><path clip-path="url(#aW)" d="m959.602 0h15.1992v100h-15.1992z" fill="#940d01" transform="matrix(.133344 0 0 -.13333733 205.032 57.553333)"/><path clip-path="url(#aX)" d="m969.699 0h15.1992v100h-15.1992z" fill="#8c0902" transform="matrix(.133344 0 0 -.13333733 205.032 57.553333)"/><path clip-path="url(#aY)" d="m979.801 0h15.1992v100h-15.1992z" fill="#830702" transform="matrix(.133344 0 0 -.13333733 205.032 57.553333)"/><path clip-path="url(#aZ)" d="m989.898 0h10.1016v100h-10.1016z" fill="#7a0403" transform="matrix(.133344 0 0 -.13333733 205.032 57.553333)"/><path d="m0 0h1000v100h-1000z" style="fill:none;stroke:#d3d3d3;stroke-width:1.9;stroke-linecap:round;stroke-linejoin:round;stroke-miterlimit:10;clip-path:url(#a0)" transform="matrix(.133344 0 0 -.13333733 205.032 57.553333)"/></g><text clip-path="url(#a2)" transform="matrix(1.3333333 0 0 1.3333333 372.776 56.266667)"><tspan font-family="Standard Symbols L" font-size="8.9664" x="0" y="0">∞</tspan><tspan font-family="Nimbus Roman No9 L" font-size="8.9664" x="37.417999 64.030273 89.817642" y="0">–––</tspan></text><path clip-path="url(#a3)" d="m0 0h382.271" fill="none" stroke="#000" stroke-miterlimit="10" stroke-width=".797" transform="matrix(1.3333333 0 0 -1.3333333 2.661333 63.469333)"/></g></svg>